<svg width="32" height="32" viewBox="0 0 32 32" fill="none" xmlns="http://www.w3.org/2000/svg">
<g id="Frame">
<g id="Group">
<path id="Vector" d="M30.9354 7.3308C30.2966 6.6616 29.4144 6.26616 28.4106 6.26616H23.3612V6.20532C23.3612 5.44487 23.057 4.71483 22.5399 4.22814C22.0228 3.71103 21.3232 3.40685 20.5627 3.40685H11.4373C10.6464 3.40685 9.94677 3.71103 9.42966 4.22814C8.91255 4.74525 8.60836 5.44487 8.60836 6.20532V6.26616H3.58935C2.58555 6.26616 1.70342 6.6616 1.06464 7.3308C0.425856 7.96958 0 8.88213 0 9.85551V25.0038C0 26.0076 0.395437 26.8897 1.06464 27.5285C1.70342 28.1673 2.61597 28.5932 3.58935 28.5932H28.4106C29.4144 28.5932 30.2966 28.1977 30.9354 27.5285C31.5741 26.8897 32 25.9772 32 25.0038V9.85551C32 8.85171 31.6046 7.96958 30.9354 7.3308ZM30.4182 25.0038H30.3878C30.3878 25.5513 30.1749 26.038 29.8099 26.403C29.4449 26.7681 28.9582 26.981 28.4106 26.981H3.58935C3.04183 26.981 2.55513 26.7681 2.19011 26.403C1.82509 26.038 1.61217 25.5513 1.61217 25.0038V9.85551C1.61217 9.30799 1.82509 8.82129 2.19011 8.45627C2.55513 8.09126 3.04183 7.87833 3.58935 7.87833H9.46008C9.91635 7.87833 10.2814 7.51331 10.2814 7.05704V6.17491C10.2814 5.8403 10.403 5.53612 10.616 5.32319C10.8289 5.11027 11.1331 4.98859 11.4677 4.98859H20.5627C20.8973 4.98859 21.2015 5.11027 21.4144 5.32319C21.6274 5.53612 21.749 5.8403 21.749 6.17491V7.05704C21.749 7.51331 22.1141 7.87833 22.5703 7.87833H28.4411C28.9886 7.87833 29.4753 8.09126 29.8403 8.45627C30.2053 8.82129 30.4182 9.30799 30.4182 9.85551V25.0038Z" fill="#929292"/>
<path id="Vector_2" d="M16 9.94677C13.9315 9.94677 12.0456 10.7985 10.7072 12.1369C9.33838 13.5057 8.51709 15.3612 8.51709 17.4297C8.51709 19.4981 9.3688 21.384 10.7072 22.7224C12.076 24.0913 13.9315 24.9125 16 24.9125C18.0684 24.9125 19.9544 24.0608 21.2928 22.7224C22.6616 21.3536 23.4829 19.4981 23.4829 17.4297C23.4829 15.3612 22.6312 13.4753 21.2928 12.1369C19.9544 10.7985 18.0684 9.94677 16 9.94677ZM20.1369 21.597C19.0722 22.6312 17.6121 23.3004 16 23.3004C14.3878 23.3004 12.9277 22.6312 11.8631 21.597C10.7985 20.5323 10.1597 19.0722 10.1597 17.4601C10.1597 15.8479 10.8289 14.3878 11.8631 13.3232C12.9277 12.2586 14.3878 11.6198 16 11.6198C17.6121 11.6198 19.0722 12.289 20.1369 13.3232C21.2015 14.3878 21.8403 15.8479 21.8403 17.4601C21.8707 19.0722 21.2015 20.5323 20.1369 21.597Z" fill="#929292"/>
<path id="Vector_3" d="M26.8289 12.8973C27.652 12.8973 28.3194 12.23 28.3194 11.4068C28.3194 10.5837 27.652 9.91635 26.8289 9.91635C26.0057 9.91635 25.3384 10.5837 25.3384 11.4068C25.3384 12.23 26.0057 12.8973 26.8289 12.8973Z" fill="#929292"/>
</g>
</g>
</svg>
