<svg width="36" height="36" viewBox="0 0 36 36" fill="none" xmlns="http://www.w3.org/2000/svg">
<circle cx="18" cy="18" r="18" fill="white"/>
<path fill-rule="evenodd" clip-rule="evenodd" d="M11.4286 10.2857C11.4286 9.81234 11.8123 9.42859 12.2857 9.42859H22.5714C23.0448 9.42859 23.4286 9.81234 23.4286 10.2857V13.7143C23.4286 16.737 21.1934 19.2376 18.2857 19.6535V24.8572H20.8572C21.3305 24.8572 21.7143 25.2409 21.7143 25.7143C21.7143 26.1877 21.3305 26.5714 20.8572 26.5714H14C13.5266 26.5714 13.1429 26.1877 13.1429 25.7143C13.1429 25.2409 13.5266 24.8572 14 24.8572H16.5714V19.6535C13.6638 19.2376 11.4286 16.737 11.4286 13.7143V10.2857ZM13.1429 11.1429V13.7143C13.1429 16.0812 15.0617 18 17.4286 18C19.7955 18 21.7143 16.0812 21.7143 13.7143V11.1429H13.1429Z" fill="#131316"/>
</svg>
