<svg width="24" height="25" viewBox="0 0 24 25" fill="none" xmlns="http://www.w3.org/2000/svg">
<path d="M14.2215 3.3778C12.7311 2.45858 10.965 1.95312 9.14062 1.95312C4.17441 1.95312 0 5.65311 0 10.3906C0 12.0516 0.516 13.6439 1.49616 15.0191L0.126937 19.3178C-0.0177187 19.7719 0.322406 20.2344 0.797016 20.2344C0.907724 20.2344 1.01687 20.2082 1.11553 20.158L5.27953 18.0408C5.44813 18.1134 5.6188 18.181 5.79131 18.2437C4.82723 16.7389 4.3125 15.0116 4.3125 13.2031C4.3125 7.81733 8.84428 3.67681 14.2215 3.3778Z" fill="#A5ADBA"/>
<path d="M22.5038 17.8316C23.484 16.4564 24 14.8641 24 13.2031C24 8.46388 19.8238 4.76562 14.8594 4.76562C9.89316 4.76562 5.71875 8.46561 5.71875 13.2031C5.71875 17.9424 9.89494 21.6406 14.8594 21.6406C16.1914 21.6406 17.5187 21.3692 18.7202 20.8532L22.8845 22.9705C23.0081 23.0333 23.1475 23.0582 23.2852 23.042C23.4229 23.0258 23.5528 22.9693 23.6584 22.8795C23.7641 22.7897 23.8408 22.6707 23.879 22.5374C23.9172 22.4041 23.9152 22.2625 23.8731 22.1304L22.5038 17.8316ZM12 13.9063C11.6117 13.9063 11.2969 13.5914 11.2969 13.2031C11.2969 12.8148 11.6117 12.5 12 12.5C12.3883 12.5 12.7031 12.8148 12.7031 13.2031C12.7031 13.5914 12.3883 13.9063 12 13.9063ZM14.8125 13.9063C14.4242 13.9063 14.1094 13.5914 14.1094 13.2031C14.1094 12.8148 14.4242 12.5 14.8125 12.5C15.2008 12.5 15.5156 12.8148 15.5156 13.2031C15.5156 13.5914 15.2008 13.9063 14.8125 13.9063ZM17.625 13.9063C17.2367 13.9063 16.9219 13.5914 16.9219 13.2031C16.9219 12.8148 17.2367 12.5 17.625 12.5C18.0133 12.5 18.3281 12.8148 18.3281 13.2031C18.3281 13.5914 18.0133 13.9063 17.625 13.9063Z" fill="#A5ADBA"/>
</svg>
