<svg width="36" height="36" viewBox="0 0 36 36" fill="none" xmlns="http://www.w3.org/2000/svg">
<circle cx="18" cy="18" r="17.5" stroke="#DFE1E6"/>
<g clip-path="url(#clip0_12966_231)">
<path d="M19.4658 18.0131L25.696 11.7828C26.1014 11.3776 26.1014 10.7223 25.696 10.3171C25.2907 9.91184 24.6355 9.91184 24.2303 10.3171L17.9999 16.5473L11.7698 10.3171C11.3644 9.91184 10.7094 9.91184 10.3041 10.3171C9.89864 10.7224 9.89864 11.3776 10.3041 11.7828L16.5341 18.0131L10.3041 24.2434C9.89868 24.6486 9.89868 25.3039 10.3041 25.7091C10.4003 25.8055 10.5145 25.882 10.6403 25.9341C10.766 25.9862 10.9009 26.013 11.037 26.0128C11.3023 26.0128 11.5677 25.9113 11.7699 25.7091L17.9999 19.4789L24.2303 25.7091C24.3264 25.8055 24.4406 25.8819 24.5664 25.9341C24.6922 25.9862 24.827 26.0129 24.9631 26.0128C25.2284 26.0128 25.4939 25.9113 25.696 25.7091C26.1014 25.3038 26.1014 24.6486 25.696 24.2434L19.4658 18.0131Z" fill="#DFE1E6"/>
</g>
<defs>
<clipPath id="clip0_12966_231">
<rect width="16" height="16" fill="white" transform="translate(10 10)"/>
</clipPath>
</defs>
</svg>
