<svg width="36" height="36" viewBox="0 0 36 36" fill="none" xmlns="http://www.w3.org/2000/svg">
<circle cx="18" cy="18" r="17.5" stroke="#DFE1E6"/>
<path d="M10.5 10.5C10.0397 10.5 9.66663 10.8731 9.66663 11.3333V16.3333C9.66663 16.7936 10.0397 17.1667 10.5 17.1667H16.3333C16.7935 17.1667 17.1666 16.7936 17.1666 16.3333V11.3333C17.1666 10.8731 16.7935 10.5 16.3333 10.5H10.5ZM11.3333 15.5V12.1667H15.5V15.5H11.3333ZM10.5 18.8333C10.0397 18.8333 9.66663 19.2064 9.66663 19.6667V24.6667C9.66663 25.1269 10.0397 25.5 10.5 25.5H16.3333C16.7935 25.5 17.1666 25.1269 17.1666 24.6667V19.6667C17.1666 19.2064 16.7935 18.8333 16.3333 18.8333H10.5ZM11.3333 23.8333V20.5H15.5V23.8333H11.3333ZM18.8333 11.3333C18.8333 10.8731 19.2064 10.5 19.6666 10.5H25.5C25.9602 10.5 26.3333 10.8731 26.3333 11.3333V16.3333C26.3333 16.7936 25.9602 17.1667 25.5 17.1667H19.6666C19.2064 17.1667 18.8333 16.7936 18.8333 16.3333V11.3333ZM20.5 12.1667V15.5H24.6666V12.1667H20.5ZM19.6666 18.8333C19.2064 18.8333 18.8333 19.2064 18.8333 19.6667V24.6667C18.8333 25.1269 19.2064 25.5 19.6666 25.5H25.5C25.9602 25.5 26.3333 25.1269 26.3333 24.6667V19.6667C26.3333 19.2064 25.9602 18.8333 25.5 18.8333H19.6666ZM20.5 23.8333V20.5H24.6666V23.8333H20.5Z" fill="white"/>
</svg>
