<svg width="36" height="36" viewBox="0 0 36 36" fill="none" xmlns="http://www.w3.org/2000/svg">
<circle cx="18" cy="18" r="17.5" stroke="#DFE1E6"/>
<g clip-path="url(#clip0_12966_243)">
<path d="M23.5172 14.8966H18.7931L23.1724 8H17.6552L12.4828 18.3448H16.5518L12.4828 28L23.5172 14.8966Z" fill="white"/>
<path d="M26.103 14L25.4878 12.4141H23.4849L22.873 14H22.2852L24.2402 8.98242H24.7632L26.7046 14H26.103ZM25.3135 11.8979L24.729 10.3223C24.7153 10.2812 24.6925 10.214 24.6606 10.1206C24.631 10.0272 24.6003 9.93034 24.5684 9.83008C24.5365 9.72982 24.5103 9.64893 24.4897 9.5874C24.467 9.68083 24.4419 9.77425 24.4146 9.86768C24.3895 9.95882 24.3644 10.0443 24.3394 10.124C24.3143 10.2015 24.2926 10.2676 24.2744 10.3223L23.6797 11.8979H25.3135Z" fill="#DFE1E6"/>
</g>
<defs>
<clipPath id="clip0_12966_243">
<rect width="20" height="20" fill="white" transform="translate(8 8)"/>
</clipPath>
</defs>
</svg>
