<svg width="8" height="8" viewBox="0 0 8 8" fill="none" xmlns="http://www.w3.org/2000/svg">
<g id="Edit">
<path id="Edit_2" fill-rule="evenodd" clip-rule="evenodd" d="M2.75051 7.01117L6.26506 2.46619C6.45607 2.22109 6.52399 1.93773 6.46032 1.64921C6.40514 1.38691 6.24384 1.13752 6.0019 0.948326L5.41189 0.479638C4.89829 0.071148 4.2616 0.114147 3.89656 0.582835L3.50181 1.09495C3.45087 1.15902 3.46361 1.25362 3.52728 1.30522C3.52728 1.30522 4.52477 2.105 4.54599 2.1222C4.6139 2.18669 4.66484 2.27269 4.67757 2.37589C4.6988 2.57798 4.55872 2.76718 4.35074 2.79298C4.25311 2.80588 4.15973 2.77578 4.09181 2.71988L3.04339 1.8857C2.99245 1.84743 2.91605 1.8556 2.8736 1.9072L0.382007 5.13212C0.220711 5.33422 0.16553 5.59651 0.220711 5.8502L0.539058 7.23047C0.556036 7.30357 0.619706 7.35517 0.696109 7.35517L2.09684 7.33797C2.35152 7.33367 2.58921 7.21757 2.75051 7.01117ZM4.71188 6.5813H6.99591C7.21876 6.5813 7.4 6.7649 7.4 6.99065C7.4 7.21682 7.21876 7.4 6.99591 7.4H4.71188C4.48903 7.4 4.30779 7.21682 4.30779 6.99065C4.30779 6.7649 4.48903 6.5813 4.71188 6.5813Z" fill="white"/>
</g>
</svg>
