<svg width="21" height="18" viewBox="0 0 21 18" fill="none" xmlns="http://www.w3.org/2000/svg">
<path d="M8.01106 11.1177C7.43606 10.5437 7.08606 9.76366 7.08606 8.88866C7.08606 7.13566 8.49806 5.72266 10.2501 5.72266C11.1171 5.72266 11.9151 6.07366 12.4801 6.64766" stroke="#8993A4" stroke-width="1.5" stroke-linecap="round" stroke-linejoin="round"/>
<path d="M13.3552 9.44922C13.1232 10.7392 12.1072 11.7572 10.8182 11.9912" stroke="#8993A4" stroke-width="1.5" stroke-linecap="round" stroke-linejoin="round"/>
<path d="M4.905 14.223C3.318 12.977 1.974 11.157 1 8.88796C1.984 6.60896 3.337 4.77896 4.934 3.52296C6.521 2.26696 8.352 1.58496 10.25 1.58496C12.159 1.58496 13.989 2.27696 15.586 3.54196" stroke="#8993A4" stroke-width="1.5" stroke-linecap="round" stroke-linejoin="round"/>
<path d="M17.698 5.74121C18.386 6.65521 18.991 7.71021 19.5 8.88721C17.533 13.4442 14.057 16.1892 10.25 16.1892C9.38702 16.1892 8.53602 16.0492 7.71802 15.7762" stroke="#8993A4" stroke-width="1.5" stroke-linecap="round" stroke-linejoin="round"/>
<path d="M18.1374 1L2.3634 16.774" stroke="#8993A4" stroke-width="1.5" stroke-linecap="round" stroke-linejoin="round"/>
</svg>
