<svg width="25" height="24" viewBox="0 0 25 24" fill="none" xmlns="http://www.w3.org/2000/svg">
<g id="Frame">
<g id="Group">
<path id="Vector" d="M10.037 13.3435H7.49485C7.08432 13.3435 6.95801 13.1856 6.95801 12.8067V9.69618C6.95801 9.28565 7.1159 9.12776 7.49485 9.12776H10.037V6.86986C10.0054 5.87512 10.2422 4.8646 10.7317 3.9646C11.2527 3.0646 12.0738 2.40144 13.0212 2.06986C13.6685 1.83302 14.3001 1.73828 14.9791 1.73828H17.4896C17.8527 1.73828 18.0106 1.89618 18.0106 2.25933V5.18039C18.0106 5.54354 17.8527 5.70144 17.4896 5.70144C16.7948 5.70144 16.1001 5.70144 15.4054 5.73302C14.7106 5.7646 14.3475 6.0646 14.3475 6.79091C14.3159 7.5646 14.3475 8.3067 14.3475 9.09618H17.3001C17.7106 9.09618 17.8685 9.25407 17.8685 9.6646V12.7751C17.8685 13.1857 17.7422 13.3435 17.3001 13.3435H14.3791V21.6962C14.3791 22.1383 14.2212 22.2804 13.7948 22.2804H10.5896C10.2106 22.2804 10.0527 22.1225 10.0527 21.7435V13.3435H10.037Z" fill="url(#paint0_linear_11231_1219)"/>
</g>
</g>
<defs>
<linearGradient id="paint0_linear_11231_1219" x1="8.27674" y1="6.24144" x2="19.2198" y2="17.1843" gradientUnits="userSpaceOnUse">
<stop stop-color="#42A5F5"/>
<stop offset="1" stop-color="#1565C0"/>
</linearGradient>
</defs>
</svg>
