<svg width="14" height="14" viewBox="0 0 14 14" fill="none" xmlns="http://www.w3.org/2000/svg">
<g id="Frame" clip-path="url(#clip0_8805_2821)">
<g id="Group">
<path id="Vector" d="M13.2068 12.6079L9.76437 9.2205C10.6658 8.24109 11.2197 6.94579 11.2197 5.52045C11.2193 2.4714 8.70787 0 5.60965 0C2.51142 0 0 2.4714 0 5.52045C0 8.56951 2.51142 11.0409 5.60965 11.0409C6.9483 11.0409 8.17607 10.5779 9.14048 9.80812L12.5963 13.2089C12.7647 13.3748 13.038 13.3748 13.2064 13.2089C13.2465 13.1698 13.2783 13.1231 13.3001 13.0715C13.3218 13.0199 13.333 12.9645 13.3331 12.9085C13.3331 12.8525 13.322 12.7971 13.3003 12.7455C13.2786 12.6939 13.2468 12.6471 13.2068 12.6079ZM5.60965 10.1916C2.98821 10.1916 0.863123 8.10024 0.863123 5.52045C0.863123 2.94067 2.98821 0.849354 5.60965 0.849354C8.23111 0.849354 10.3562 2.94067 10.3562 5.52045C10.3562 8.10024 8.23111 10.1916 5.60965 10.1916Z" fill="#B2B2B2"/>
</g>
</g>
<defs>
<clipPath id="clip0_8805_2821">
<rect width="13.3333" height="13.3333" fill="white"/>
</clipPath>
</defs>
</svg>
