<svg width="25" height="24" viewBox="0 0 25 24" fill="none" xmlns="http://www.w3.org/2000/svg">
<g id="Group">
<path id="Vector" d="M23.5955 9.91348H13.8053C13.3736 9.91348 13.0242 10.2629 13.0242 10.6946V13.8244C13.0242 14.2561 13.3736 14.6056 13.8053 14.6056H19.3197C18.7184 16.173 17.5878 17.4835 16.1539 18.3161L18.5025 22.3863C22.2696 20.2073 24.5 16.3786 24.5 12.0976C24.5 11.4861 24.4537 11.0492 24.3664 10.561C24.2944 10.1859 23.9706 9.91348 23.5955 9.91348Z" fill="#167EE6"/>
<path id="Vector_2" d="M12.5001 19.3028C9.80199 19.3028 7.44825 17.8278 6.18401 15.6488L2.11377 17.9923C4.18486 21.5846 8.06495 24 12.5001 24C14.6791 24 16.7296 23.4141 18.5026 22.3914V22.3863L16.154 18.3161C15.0748 18.943 13.8311 19.3028 12.5001 19.3028Z" fill="#12B347"/>
<path id="Vector_3" d="M18.4974 22.3914V22.3863L16.1488 18.3161C15.0747 18.9379 13.831 19.3028 12.5 19.3028V24C14.679 24 16.7296 23.4141 18.4974 22.3914Z" fill="#0F993E"/>
<path id="Vector_4" d="M5.19722 12C5.19722 10.6689 5.5621 9.42527 6.18394 8.35118L2.1137 6.00771C1.08587 7.77045 0.5 9.81584 0.5 12C0.5 14.1842 1.08587 16.2295 2.1137 17.9923L6.18394 15.6488C5.55696 14.5747 5.19722 13.331 5.19722 12Z" fill="#FFD500"/>
<path id="Vector_5" d="M12.5001 4.69722C14.2577 4.69722 15.8765 5.3242 17.1356 6.36231C17.4491 6.61927 17.9014 6.59872 18.184 6.31606L20.399 4.10107C20.7228 3.7773 20.6971 3.24797 20.3527 2.94989C18.2405 1.11006 15.4911 0 12.5001 0C8.06495 0 4.18486 2.41542 2.11377 6.00771L6.18401 8.35118C7.44825 6.17216 9.80199 4.69722 12.5001 4.69722Z" fill="#FF4B26"/>
<path id="Vector_6" d="M17.1355 6.36231C17.449 6.61927 17.9013 6.59871 18.1839 6.31606L20.3989 4.10107C20.7227 3.7773 20.697 3.24797 20.3527 2.94989C18.2405 1.11006 15.491 0 12.5 0V4.69722C14.2576 4.69722 15.8764 5.31906 17.1355 6.36231Z" fill="#D93F21"/>
</g>
</svg>
