<svg width="34" height="29" viewBox="0 0 34 29" fill="none" xmlns="http://www.w3.org/2000/svg">
<g clip-path="url(#clip0_8808_4780)">
<path d="M6.59475 27.1293C6.59475 25.0109 7.36507 23.0852 8.52053 21.6408C8.03909 21.4482 7.46135 21.352 6.97991 21.352C4.18753 21.352 1.87659 23.6629 1.87659 26.4553C1.7803 27.033 2.26174 27.5145 2.83948 27.5145H6.49846C6.59475 27.4182 6.59475 27.2256 6.59475 27.1293ZM7.0762 20.7742C8.52053 20.7742 9.77229 19.9076 10.2537 18.6559C9.48342 17.5967 9.09827 16.3449 9.09827 14.9006V14.5154C8.52053 14.1303 7.84651 13.8414 7.0762 13.8414C5.15042 13.8414 3.70608 15.382 3.70608 17.3078C3.60979 19.2336 5.15042 20.7742 7.0762 20.7742ZM23.8305 21.352C23.2528 21.352 22.7713 21.4482 22.2899 21.6408C23.5416 23.1814 24.2157 25.0109 24.2157 27.1293V27.5145H27.9709C28.5487 27.5145 29.0301 27.033 28.9338 26.4553C28.9338 23.6629 26.6229 21.352 23.8305 21.352ZM23.8305 20.7742C25.7563 20.7742 27.2006 19.2336 27.2006 17.3078C27.2006 15.382 25.66 13.8414 23.8305 13.8414C23.0602 13.8414 22.3862 14.034 21.8084 14.5154V14.9006C21.8084 16.2486 21.327 17.5967 20.653 18.6559C21.2307 19.9076 22.3862 20.7742 23.8305 20.7742ZM15.4533 20.2928C11.6981 20.2928 8.52053 23.374 8.52053 27.2256C8.42424 27.8033 8.90569 28.3811 9.48342 28.3811H21.327C21.9047 28.3811 22.3862 27.8033 22.2899 27.2256C22.3862 23.374 19.2086 20.2928 15.4533 20.2928ZM15.4533 19.4262C17.9569 19.4262 19.9789 17.4041 19.9789 14.9006C19.9789 12.3971 17.9569 10.375 15.4533 10.375C12.9498 10.375 10.9278 12.3971 10.9278 14.9006C10.9278 17.4041 12.9498 19.4262 15.4533 19.4262Z" fill="#A5ADBA"/>
<path d="M22.4821 9.07666C21.8387 8.17399 21.5 7.12878 21.5 6.03847C21.5 2.92757 24.2413 0.5 27.5 0.5C30.7599 0.5 33.5 2.92871 33.5 6.03847C33.5 9.14937 30.7587 11.5769 27.5 11.5769C26.6256 11.5769 25.7544 11.3988 24.9657 11.0601L22.2322 12.4499C22.1511 12.4911 22.0596 12.5075 21.9692 12.4968C21.8788 12.4862 21.7936 12.4491 21.7242 12.3902C21.6549 12.3312 21.6045 12.2531 21.5794 12.1656C21.5543 12.0781 21.5557 11.9852 21.5833 11.8984L22.4821 9.07666ZM29.3769 6.50001C29.6318 6.50001 29.8385 6.29337 29.8385 6.03847C29.8385 5.78358 29.6318 5.57693 29.3769 5.57693C29.122 5.57693 28.9154 5.78358 28.9154 6.03847C28.9154 6.29337 29.122 6.50001 29.3769 6.50001ZM27.5308 6.50001C27.7857 6.50001 27.9923 6.29337 27.9923 6.03847C27.9923 5.78358 27.7857 5.57693 27.5308 5.57693C27.2759 5.57693 27.0692 5.78358 27.0692 6.03847C27.0692 6.29337 27.2759 6.50001 27.5308 6.50001ZM25.6846 6.50001C25.9395 6.50001 26.1462 6.29337 26.1462 6.03847C26.1462 5.78358 25.9395 5.57693 25.6846 5.57693C25.4297 5.57693 25.2231 5.78358 25.2231 6.03847C25.2231 6.29337 25.4297 6.50001 25.6846 6.50001Z" fill="#A5ADBA"/>
</g>
<defs>
<clipPath id="clip0_8808_4780">
<rect width="33" height="28" fill="white" transform="translate(0.5 0.5)"/>
</clipPath>
</defs>
</svg>
