<svg width="23" height="22" viewBox="0 0 23 22" fill="none" xmlns="http://www.w3.org/2000/svg">
<path d="M0 10.4151C0 10.9252 0.376124 11.3666 0.977923 11.3666C1.26942 11.3666 1.53271 11.1999 1.76778 11.0037L11.0957 2.83224C11.359 2.59681 11.6599 2.59681 11.9231 2.83224L21.2416 11.0037C21.4673 11.1999 21.7306 11.3666 22.0221 11.3666C22.5769 11.3666 23 11.0037 23 10.4347C23 10.1012 22.8778 9.83633 22.6333 9.62052L19.991 7.30544V3.22463C19.991 2.7832 19.7183 2.50853 19.2952 2.50853H17.9975C17.5838 2.50853 17.3017 2.7832 17.3017 3.22463V4.94132L12.8446 1.03708C12.0266 0.320974 10.9922 0.320974 10.1742 1.03708L0.376124 9.62052C0.12224 9.83633 0 10.1306 0 10.4151ZM3.05601 19.234C3.05601 20.6466 3.90229 21.5 5.30335 21.5H17.7061C19.0977 21.5 19.9534 20.6466 19.9534 19.234V11.7786L12.083 4.90208C11.7163 4.56855 11.2743 4.57836 10.917 4.90208L3.05601 11.7786V19.234ZM13.973 19.6558H9.03639V13.3776C9.03639 12.9166 9.32788 12.6223 9.76983 12.6223H13.249C13.6909 12.6223 13.973 12.9166 13.973 13.3776V19.6558Z" fill="#22252D"/>
</svg>
