<svg width="14" height="14" viewBox="0 0 14 14" fill="none" xmlns="http://www.w3.org/2000/svg">
<path d="M10.2287 13.1256H5.1362C4.56031 13.147 3.99923 12.9402 3.57489 12.5503C3.15054 12.1604 2.89722 11.6187 2.86995 11.0431V8.31308C2.86995 8.19705 2.91605 8.08577 2.9981 8.00372C3.08014 7.92168 3.19142 7.87558 3.30745 7.87558C3.42349 7.87558 3.53477 7.92168 3.61681 8.00372C3.69886 8.08577 3.74495 8.19705 3.74495 8.31308V11.0431C3.77184 11.3867 3.93283 11.706 4.19315 11.9319C4.45346 12.1579 4.7922 12.2723 5.1362 12.2506H10.2287C10.5727 12.2723 10.9114 12.1579 11.1718 11.9319C11.4321 11.706 11.5931 11.3867 11.62 11.0431V8.31308C11.62 8.19705 11.666 8.08577 11.7481 8.00372C11.8301 7.92168 11.9414 7.87558 12.0575 7.87558C12.1735 7.87558 12.2848 7.92168 12.3668 8.00372C12.4489 8.08577 12.495 8.19705 12.495 8.31308V11.0431C12.4677 11.6187 12.2144 12.1604 11.79 12.5503C11.3657 12.9402 10.8046 13.147 10.2287 13.1256ZM13.6806 7.31121C13.7216 7.27054 13.7541 7.22215 13.7763 7.16884C13.7986 7.11552 13.81 7.05834 13.81 7.00058C13.81 6.94283 13.7986 6.88564 13.7763 6.83233C13.7541 6.77902 13.7216 6.73063 13.6806 6.68996L7.99308 1.00246C7.95241 0.961452 7.90402 0.928905 7.85071 0.906694C7.79739 0.884482 7.74021 0.873047 7.68245 0.873047C7.6247 0.873047 7.56751 0.884482 7.5142 0.906694C7.46089 0.928905 7.4125 0.961452 7.37183 1.00246L1.68433 6.68996C1.60195 6.77234 1.55566 6.88408 1.55566 7.00058C1.55566 7.11709 1.60195 7.22883 1.68433 7.31121C1.76671 7.39359 1.87845 7.43987 1.99495 7.43987C2.11146 7.43987 2.2232 7.39359 2.30558 7.31121L7.68245 1.92996L13.0593 7.31121C13.1 7.35221 13.1484 7.38476 13.2017 7.40697C13.255 7.42919 13.3122 7.44062 13.37 7.44062C13.4277 7.44062 13.4849 7.42919 13.5382 7.40697C13.5915 7.38476 13.6399 7.35221 13.6806 7.31121Z" fill="#B2B2B2"/>
</svg>
