<svg width="29" height="29" viewBox="0 0 29 29" fill="none" xmlns="http://www.w3.org/2000/svg">
<path d="M3 13.4151C3 13.9252 3.37612 14.3666 3.97792 14.3666C4.26942 14.3666 4.53271 14.1999 4.76778 14.0037L14.0957 5.83224C14.359 5.59681 14.6599 5.59681 14.9231 5.83224L24.2416 14.0037C24.4673 14.1999 24.7306 14.3666 25.0221 14.3666C25.5769 14.3666 26 14.0037 26 13.4347C26 13.1012 25.8778 12.8363 25.6333 12.6205L22.991 10.3054V6.22463C22.991 5.7832 22.7183 5.50853 22.2952 5.50853H20.9975C20.5838 5.50853 20.3017 5.7832 20.3017 6.22463V7.94132L15.8446 4.03708C15.0266 3.32097 13.9922 3.32097 13.1742 4.03708L3.37612 12.6205C3.12224 12.8363 3 13.1306 3 13.4151ZM6.05601 22.234C6.05601 23.6466 6.90229 24.5 8.30335 24.5H20.7061C22.0977 24.5 22.9534 23.6466 22.9534 22.234V14.7786L15.083 7.90208C14.7163 7.56855 14.2743 7.57836 13.917 7.90208L6.05601 14.7786V22.234ZM16.973 22.6558H12.0364V16.3776C12.0364 15.9166 12.3279 15.6223 12.7698 15.6223H16.249C16.6909 15.6223 16.973 15.9166 16.973 16.3776V22.6558Z" fill="#22252D"/>
</svg>
