<svg width="46" height="47" viewBox="0 0 46 47" fill="none" xmlns="http://www.w3.org/2000/svg">
<path fill-rule="evenodd" clip-rule="evenodd" d="M10.3414 9.58832C10.3414 13.8145 13.7671 17.2401 17.9933 17.2401C22.2195 17.2401 25.6453 13.8145 25.6453 9.58832C25.6453 5.36333 22.2195 1.9375 17.9933 1.9375C13.7672 1.9375 10.3414 5.36333 10.3414 9.58832ZM35.5781 27.0938C40.54 27.0938 44.5625 31.1161 44.5625 36.0781C44.5625 41.04 40.5401 45.0625 35.5781 45.0625C30.6162 45.0625 26.5938 41.04 26.5938 36.0781C26.5938 31.1162 30.6162 27.0938 35.5781 27.0938ZM33.1273 39.9616C33.6791 40.4823 34.2022 40.8757 34.9638 41.0101L34.9803 41.697C34.987 41.8611 35.058 42.0161 35.1779 42.1285C35.2978 42.2409 35.457 42.3017 35.6213 42.2978C35.7855 42.2939 35.9417 42.2257 36.0562 42.1078C36.1707 41.9899 36.2342 41.8318 36.2333 41.6675L36.2171 40.9988C37.532 40.7399 38.6225 39.6639 38.6225 38.2749C38.6225 36.6385 37.1424 35.489 35.5781 35.489C34.7069 35.489 33.7916 34.9023 33.7916 33.961C33.7916 33.0216 34.7079 32.4305 35.5781 32.4305C35.9973 32.4305 36.9608 32.7843 37.1977 33.1446C37.2904 33.2801 37.4325 33.3738 37.5935 33.4055C37.7545 33.4373 37.9215 33.4046 38.0587 33.3145C38.1958 33.2243 38.2921 33.084 38.3268 32.9236C38.3615 32.7632 38.3319 32.5956 38.2443 32.4568C37.8381 31.8388 36.9062 31.4148 36.195 31.255L36.176 30.4596C36.1693 30.2954 36.0983 30.1404 35.9785 30.028C35.8586 29.9156 35.6994 29.8548 35.5351 29.8587C35.3708 29.8626 35.2146 29.9308 35.1001 30.0487C34.9857 30.1666 34.9221 30.3247 34.9231 30.489L34.941 31.2389C33.6242 31.4959 32.5338 32.5708 32.5338 33.961C32.5338 35.5974 34.0138 36.7468 35.5781 36.7468C36.4493 36.7468 37.3647 37.3335 37.3647 38.2749C37.3647 39.2163 36.4493 39.803 35.5781 39.803C34.8485 39.803 34.4978 39.5297 33.9871 39.0479C33.9271 38.9915 33.8565 38.9474 33.7795 38.9182C33.7024 38.889 33.6204 38.8752 33.5381 38.8778C33.4557 38.8803 33.3747 38.899 33.2995 38.9328C33.2244 38.9666 33.1567 39.0149 33.1002 39.075C33.0438 39.1349 32.9997 39.2055 32.9705 39.2825C32.9413 39.3595 32.9275 39.4416 32.9301 39.5239C32.9326 39.6062 32.9513 39.6873 32.9851 39.7624C33.019 39.8375 33.0673 39.9052 33.1273 39.9616ZM28.6312 43.6031C26.6053 41.7318 25.3359 39.0532 25.3359 36.0781C25.3359 32.3123 27.3693 29.0214 30.3974 27.242C29.2536 25.9486 27.9154 24.8412 26.431 23.9594L17.9933 36.8084L9.55587 23.9597C4.69595 26.8444 1.4375 32.144 1.4375 38.2051C1.4375 44.8848 19.1081 46.6833 28.6312 43.6031ZM21.0598 23.2458L20.4828 25.0218C20.3969 25.2863 20.233 25.5027 20.0205 25.65L20.6641 30.4499L17.9933 34.5169L15.3225 30.4498L15.966 25.6499C15.7536 25.5026 15.5898 25.2862 15.5038 25.0217L14.9267 23.2457C14.8022 22.8626 14.8631 22.4783 15.0999 22.1523C15.3368 21.8262 15.6835 21.6497 16.0864 21.6497H19.9001C20.3031 21.6497 20.6497 21.8263 20.8866 22.1523C21.1235 22.4784 21.1843 22.8626 21.0598 23.2458Z" fill="url(#paint0_linear_8805_1403)"/>
<defs>
<linearGradient id="paint0_linear_8805_1403" x1="23" y1="1.9375" x2="23" y2="45.0625" gradientUnits="userSpaceOnUse">
<stop stop-color="#3EE1D0"/>
<stop offset="1" stop-color="#00C9E4"/>
</linearGradient>
</defs>
</svg>
