<svg width="47" height="47" viewBox="0 0 47 47" fill="none" xmlns="http://www.w3.org/2000/svg">
<path d="M23.5042 1.93945C17.9542 1.93945 13.4365 6.44899 13.4365 11.999C13.4365 17.549 17.9542 22.0639 23.5042 22.0639C29.0514 22.0639 33.5637 17.549 33.5637 11.999C33.5637 6.44899 29.0514 1.93945 23.5042 1.93945ZM23.5014 4.80817C23.86 4.80817 24.2186 5.04723 24.2186 5.52807V7.07652C25.452 7.39708 26.3729 8.51631 26.3729 9.84744C26.3729 10.0384 26.297 10.2215 26.162 10.3565C26.027 10.4915 25.8439 10.5673 25.653 10.5673C25.4621 10.5673 25.2789 10.4915 25.1439 10.3565C25.0089 10.2215 24.9331 10.0384 24.9331 9.84744C24.9349 9.65891 24.8992 9.4719 24.8281 9.29726C24.7571 9.12263 24.652 8.96385 24.5191 8.83016C24.3861 8.69646 24.228 8.5905 24.0537 8.51844C23.8795 8.44637 23.6927 8.40964 23.5042 8.41037C23.3147 8.40892 23.1268 8.44518 22.9515 8.51702C22.7761 8.58886 22.6168 8.69486 22.4829 8.82885C22.3489 8.96284 22.2429 9.12213 22.171 9.29747C22.0992 9.47281 22.0629 9.66068 22.0644 9.85016C22.0644 10.6516 22.7001 11.2872 23.5042 11.2872C24.2651 11.2901 24.9939 11.594 25.5314 12.1326C26.0689 12.6711 26.3715 13.4005 26.3729 14.1614C26.3729 15.4925 25.452 16.6145 24.2186 16.935V18.4699C24.2186 19.4289 22.7815 19.4289 22.7815 18.4699V16.935C22.1677 16.7743 21.624 16.4158 21.2346 15.9148C20.8451 15.4139 20.6317 14.7986 20.6273 14.1641C20.6273 13.9732 20.7031 13.7901 20.8381 13.6551C20.9732 13.5201 21.1563 13.4442 21.3472 13.4442C21.5381 13.4442 21.7212 13.5201 21.8562 13.6551C21.9912 13.7901 22.0671 13.9732 22.0671 14.1641C22.0671 14.9655 22.7001 15.6012 23.5042 15.6012C24.3056 15.6012 24.9358 14.9655 24.9358 14.1614C24.9358 13.3573 24.3056 12.7243 23.5042 12.7243C22.742 12.7222 22.0117 12.4188 21.4723 11.8805C20.9329 11.3421 20.6282 10.6123 20.6246 9.85016C20.6246 8.51903 21.5482 7.40251 22.7815 7.07924V5.52535C22.7815 5.04451 23.1401 4.80817 23.5014 4.80817ZM41.7243 20.0482C40.855 20.0482 39.9776 20.3824 39.3174 21.0452L34.7644 25.5955C35.3621 26.4241 35.7207 27.4346 35.7207 28.5294C35.7207 31.3058 33.4659 33.5605 30.6895 33.5605H22.8549C21.8117 33.6556 21.8117 32.0365 22.8549 32.1289H30.6895C32.6917 32.1289 34.2809 30.5343 34.2809 28.5321C34.2809 27.8258 34.0771 27.1793 33.7321 26.6305C33.406 26.1176 32.9569 25.6943 32.4255 25.3992C31.8941 25.1041 31.2973 24.9465 30.6895 24.9408H15.5935C12.54 24.9408 10.8449 26.5192 9.4268 27.9372L19.4048 37.918C19.5597 37.8908 19.7227 37.8772 19.9074 37.8772H32.1266C34.5987 37.8772 36.6633 36.6547 38.1221 34.5385C39.7684 32.1534 42.8517 27.6927 44.2154 25.7639C44.7099 25.0576 45.0277 24.2535 45.0576 23.4168C45.0757 22.9792 45.0029 22.5425 44.844 22.1343C44.685 21.7262 44.4433 21.3554 44.1339 21.0452C43.8176 20.7287 43.442 20.4777 43.0285 20.3066C42.615 20.1355 42.1718 20.0477 41.7243 20.0482ZM6.96829 27.8122C6.87443 27.8121 6.78147 27.8305 6.69475 27.8664C6.60803 27.9023 6.52927 27.955 6.463 28.0214L2.14906 32.3381C2.08171 32.405 2.02825 32.4846 1.99178 32.5722C1.9553 32.6599 1.93652 32.7539 1.93652 32.8488C1.93652 32.9437 1.9553 33.0377 1.99178 33.1254C2.02825 33.213 2.08171 33.2926 2.14906 33.3595L13.6538 44.8561C13.9336 45.1332 14.3873 45.1332 14.6671 44.8561L18.9783 40.5422C19.1119 40.4074 19.1868 40.2253 19.1868 40.0355C19.1868 39.8458 19.1119 39.6637 18.9783 39.5289L7.47629 28.0187C7.40952 27.9522 7.33028 27.8994 7.24311 27.8635C7.15594 27.8277 7.06255 27.812 6.96829 27.8122Z" fill="url(#paint0_linear_8805_1391)"/>
<defs>
<linearGradient id="paint0_linear_8805_1391" x1="23.4984" y1="1.93945" x2="23.4984" y2="45.0639" gradientUnits="userSpaceOnUse">
<stop stop-color="#3EE1D0"/>
<stop offset="1" stop-color="#00C9E4"/>
</linearGradient>
</defs>
</svg>
