<svg width="13" height="14" viewBox="0 0 13 14" fill="none" xmlns="http://www.w3.org/2000/svg">
<g id="Frame" clip-path="url(#clip0_8805_2828)">
<g id="Group">
<path id="Vector" d="M12.35 2.45H9.53333V1.58333C9.5326 0.985279 9.04805 0.500731 8.45 0.5H4.55C3.95195 0.500731 3.4674 0.985279 3.46667 1.58333V2.45H0.65C0.291037 2.45 0 2.74104 0 3.1V7.92295C0.000643463 8.05707 0.0425839 8.18775 0.120117 8.29719C0.197651 8.40664 0.307014 8.48955 0.433333 8.53465V11.55C0.433333 11.909 0.724371 12.2 1.08333 12.2H11.9167C12.2756 12.2 12.5667 11.909 12.5667 11.55V8.53487C12.693 8.48973 12.8024 8.40678 12.8799 8.29729C12.9574 8.18781 12.9994 8.0571 13 7.92295V3.1C13 2.74104 12.709 2.45 12.35 2.45ZM3.9 1.58333C3.9 1.22437 4.19104 0.933333 4.55 0.933333H8.45C8.80896 0.933333 9.1 1.22437 9.1 1.58333V2.45H8.66667V1.58333C8.66667 1.52587 8.64384 1.47076 8.60321 1.43013C8.56257 1.38949 8.50746 1.36667 8.45 1.36667H4.55C4.49254 1.36667 4.43743 1.38949 4.39679 1.43013C4.35616 1.47076 4.33333 1.52587 4.33333 1.58333V2.45H3.9V1.58333ZM8.23333 2.45H4.76667V1.8H8.23333V2.45ZM12.1333 11.55C12.1333 11.6075 12.1105 11.6626 12.0699 11.7032C12.0292 11.7438 11.9741 11.7667 11.9167 11.7667H1.08333C1.02587 11.7667 0.97076 11.7438 0.930127 11.7032C0.889494 11.6626 0.866667 11.6075 0.866667 11.55V8.60913L5.63333 9.26655V9.81667C5.63333 10.1756 5.92437 10.4667 6.28333 10.4667H6.71667C7.07563 10.4667 7.36667 10.1756 7.36667 9.81667V9.26652L12.1333 8.60913V11.55ZM6.93333 9.81667C6.93333 9.87413 6.91051 9.92924 6.86987 9.96987C6.82924 10.0105 6.77413 10.0333 6.71667 10.0333H6.28333C6.22587 10.0333 6.17076 10.0105 6.13013 9.96987C6.08949 9.92924 6.06667 9.87413 6.06667 9.81667V8.51667C6.06667 8.4592 6.08949 8.40409 6.13013 8.36346C6.17076 8.32283 6.22587 8.3 6.28333 8.3H6.71667C6.77413 8.3 6.82924 8.32283 6.86987 8.36346C6.91051 8.40409 6.93333 8.4592 6.93333 8.51667V9.81667ZM12.5667 7.92295C12.5667 7.97519 12.5479 8.0257 12.5137 8.06516C12.4794 8.10463 12.4321 8.1304 12.3804 8.13772L12.3203 8.14598L7.36667 8.82905V8.51667C7.36667 8.1577 7.07563 7.86667 6.71667 7.86667H6.28333C5.92437 7.86667 5.63333 8.1577 5.63333 8.51667V8.82907L0.619856 8.13772C0.568089 8.13044 0.520698 8.10469 0.48642 8.06522C0.452142 8.02575 0.433288 7.97522 0.433333 7.92295V3.1C0.433333 3.04254 0.456161 2.98743 0.496794 2.94679C0.537426 2.90616 0.592536 2.88333 0.65 2.88333H12.35C12.4075 2.88333 12.4626 2.90616 12.5032 2.94679C12.5438 2.98743 12.5667 3.04254 12.5667 3.1V7.92295Z" fill="#B2B2B2"/>
</g>
</g>
<defs>
<clipPath id="clip0_8805_2828">
<rect width="13" height="13" fill="white" transform="translate(0 0.5)"/>
</clipPath>
</defs>
</svg>
