<svg width="28" height="29" viewBox="0 0 28 29" fill="none" xmlns="http://www.w3.org/2000/svg">
<g id="Frame" clip-path="url(#clip0_8805_878)">
<g id="Group">
<g id="Layer 2">
<path id="Vector" d="M24.1818 0.5H3.81818C1.70946 0.5 0 2.20946 0 4.31818V24.6818C0 26.7905 1.70946 28.5 3.81818 28.5H24.1818C26.2905 28.5 28 26.7905 28 24.6818V4.31818C28 2.20946 26.2905 0.5 24.1818 0.5Z" fill="#0077B5"/>
<g id="Group_2">
<path id="Vector_2" d="M10.0863 8.13636C10.0863 8.60834 9.94637 9.06972 9.68415 9.46216C9.42194 9.85459 9.04924 10.1605 8.61319 10.3411C8.17713 10.5217 7.69732 10.569 7.23441 10.4769C6.7715 10.3848 6.34629 10.1575 6.01255 9.82378C5.67881 9.49004 5.45153 9.06483 5.35945 8.60192C5.26737 8.13901 5.31463 7.65919 5.49525 7.22314C5.67587 6.78709 5.98174 6.41439 6.37417 6.15217C6.76661 5.88996 7.22799 5.75 7.69996 5.75C8.33287 5.75 8.93985 6.00142 9.38738 6.44895C9.83491 6.89648 10.0863 7.50346 10.0863 8.13636ZM9.54542 12.1136V22.6566C9.54584 22.7344 9.53088 22.8115 9.50141 22.8834C9.47193 22.9554 9.42852 23.0209 9.37367 23.076C9.31882 23.1312 9.25362 23.1749 9.1818 23.2048C9.10998 23.2346 9.03297 23.25 8.95519 23.25H6.43996C6.36219 23.2502 6.28513 23.235 6.21324 23.2054C6.14134 23.1757 6.07601 23.1321 6.02102 23.0771C5.96602 23.0221 5.92243 22.9568 5.89277 22.8849C5.8631 22.813 5.84794 22.736 5.84815 22.6582V12.1136C5.84815 11.9567 5.9105 11.8061 6.02148 11.6952C6.13247 11.5842 6.283 11.5218 6.43996 11.5218H8.95519C9.11188 11.5222 9.262 11.5848 9.37264 11.6957C9.48329 11.8067 9.54542 11.957 9.54542 12.1136ZM22.6927 17.6023V22.7059C22.6929 22.7774 22.679 22.8483 22.6517 22.9144C22.6244 22.9805 22.5844 23.0405 22.5338 23.0911C22.4832 23.1417 22.4232 23.1817 22.3571 23.209C22.291 23.2363 22.2201 23.2502 22.1486 23.25H19.4441C19.3725 23.2502 19.3017 23.2363 19.2356 23.209C19.1695 23.1817 19.1094 23.1417 19.0589 23.0911C19.0083 23.0405 18.9682 22.9805 18.941 22.9144C18.9137 22.8483 18.8998 22.7774 18.9 22.7059V17.7598C18.9 17.0216 19.1163 14.527 16.9702 14.527C15.3077 14.527 14.9688 16.2341 14.902 17.0009V22.7059C14.902 22.8488 14.8458 22.986 14.7455 23.0879C14.6451 23.1897 14.5088 23.2479 14.3659 23.25H11.7536C11.6822 23.25 11.6115 23.2359 11.5456 23.2086C11.4797 23.1812 11.4198 23.1411 11.3694 23.0905C11.319 23.04 11.2791 22.98 11.2519 22.914C11.2248 22.848 11.2109 22.7773 11.2111 22.7059V12.0675C11.2109 11.9961 11.2248 11.9254 11.2519 11.8594C11.2791 11.7934 11.319 11.7334 11.3694 11.6829C11.4198 11.6323 11.4797 11.5922 11.5456 11.5649C11.6115 11.5375 11.6822 11.5234 11.7536 11.5234H14.3659C14.5102 11.5234 14.6486 11.5807 14.7506 11.6828C14.8526 11.7848 14.91 11.9232 14.91 12.0675V12.987C15.5272 12.0611 16.442 11.3468 18.3941 11.3468C22.7181 11.3468 22.6927 15.3845 22.6927 17.6023Z" fill="white"/>
</g>
</g>
</g>
</g>
<defs>
<clipPath id="clip0_8805_878">
<rect width="28" height="28" fill="white" transform="translate(0 0.5)"/>
</clipPath>
</defs>
</svg>
