<svg width="12" height="14" viewBox="0 0 12 14" fill="none" xmlns="http://www.w3.org/2000/svg">
<g clip-path="url(#clip0_8805_3248)">
<path d="M6.66367 12.8392L6.66368 12.8392C6.79552 12.716 6.96139 12.5701 7.15534 12.3995L7.15543 12.3994L7.15747 12.3976C7.85336 11.7855 8.85578 10.9037 9.68407 9.8298C10.5127 8.75547 11.1756 7.47821 11.1756 6.07537C11.1755 4.6932 10.6371 3.39323 9.65973 2.41584C8.68238 1.43846 7.38239 0.9 6.00019 0.9C4.618 0.9 3.31799 1.43846 2.34064 2.41584C1.36327 3.39323 0.824805 4.6932 0.824805 6.07537C0.824805 7.47821 1.48766 8.75547 2.3163 9.82981C3.14462 10.9037 4.1471 11.7856 4.843 12.3977L4.84494 12.3994C5.03892 12.5701 5.20483 12.716 5.33669 12.8392C5.52291 13.0132 5.76184 13.1 6.00017 13.1C6.23856 13.1 6.47743 13.0131 6.66367 12.8392ZM6.55904 11.7215C6.36157 11.8952 6.1895 12.0466 6.04732 12.1794L5.953 12.1794C5.81127 12.0469 5.63979 11.8961 5.44311 11.7231L5.44128 11.7215C4.78583 11.1449 3.85566 10.3264 3.08894 9.35135C2.32129 8.37516 1.7277 7.25473 1.7277 6.07539C1.7277 3.71965 3.64438 1.80296 6.00015 1.80296C8.35589 1.80296 10.2726 3.71965 10.2726 6.07539C10.2726 7.25473 9.67901 8.37516 8.91137 9.35135C8.14465 10.3264 7.21449 11.1449 6.55904 11.7215Z" fill="#8993A4" stroke="#8993A4" stroke-width="0.2"/>
<path d="M6.00034 3.54844C4.7118 3.54844 3.66367 4.59654 3.66367 5.88508C3.66367 7.17361 4.7118 8.22172 6.00034 8.22172C7.28887 8.22172 8.33698 7.17361 8.33698 5.88508C8.33698 4.59654 7.28887 3.54844 6.00034 3.54844ZM6.00034 7.31876C5.20987 7.31876 4.56661 6.6755 4.56661 5.88505C4.56661 5.09461 5.20987 4.45135 6.00034 4.45135C6.7908 4.45135 7.43404 5.09461 7.43404 5.88505C7.43404 6.6755 6.7908 7.31876 6.00034 7.31876Z" fill="#8993A4" stroke="#8993A4" stroke-width="0.2"/>
</g>
<defs>
<clipPath id="clip0_8805_3248">
<rect width="12" height="14" fill="white"/>
</clipPath>
</defs>
</svg>
