<svg width="116" height="24" viewBox="0 0 116 24" fill="none" xmlns="http://www.w3.org/2000/svg">
<path d="M4.89576 1.52656C4.75442 1.24387 4.55654 1.01773 4.35866 0.848115C4.13251 0.678504 3.84982 0.56543 3.48233 0.56543H0.429329C0.0901058 0.56543 -0.107774 0.932921 0.0618375 1.21561L4.58481 8.76331C4.64134 8.84811 4.69788 8.87638 4.78269 8.87638H8.5424C8.71202 8.87638 8.82509 8.6785 8.74028 8.50889L4.89576 1.52656Z" fill="black"/>
<path d="M20.4435 1.21561L12.6131 14.417C12.5 14.6149 12.4152 14.841 12.4152 15.0955V23.2933C12.4152 23.5195 12.2173 23.7174 11.9912 23.7174H8.54244C8.28802 23.7174 8.11841 23.5195 8.11841 23.2933V15.3782C8.11841 14.9824 8.23148 14.5866 8.42936 14.2474L11.1431 9.75271C11.2279 9.5831 11.3128 9.41349 11.3976 9.24387L15.6096 1.52656C15.7226 1.30041 15.8923 1.07426 16.1467 0.876384C16.3728 0.678504 16.6838 0.56543 17.0513 0.56543H20.1043C20.4152 0.56543 20.6131 0.932921 20.4435 1.21561Z" fill="black"/>
<path d="M23.4682 7.29297C23.9771 7.29297 24.3728 7.68873 24.3728 8.19756V17.7241C24.3728 18.7135 24.599 19.505 25.0795 20.0421C25.5318 20.5792 26.2386 20.8619 27.1714 20.8619C27.8499 20.8619 28.5 20.7205 29.0937 20.4096C29.6873 20.0986 30.2527 19.6746 30.7898 19.1658V8.22583C30.7898 7.717 31.1856 7.32124 31.6944 7.32124H33.8145C34.3234 7.32124 34.7191 7.717 34.7191 8.22583V22.6428C34.7191 23.2364 34.2386 23.7453 33.6166 23.7453H32.288C31.7792 23.7453 31.44 23.5191 31.2704 23.0385L30.9877 21.7382C30.6484 22.0774 30.281 22.3884 29.9417 22.6711C29.5742 22.9537 29.1785 23.1799 28.7827 23.3778C28.3587 23.5757 27.9347 23.717 27.4541 23.8301C26.9735 23.9431 26.4647 23.9997 25.9276 23.9997C25.023 23.9997 24.2315 23.8583 23.553 23.5474C22.8746 23.2364 22.281 22.8124 21.8287 22.247C21.3481 21.6817 21.0089 21.0315 20.7545 20.2682C20.5283 19.505 20.387 18.6569 20.387 17.7523V8.22583C20.387 7.717 20.7827 7.32124 21.2916 7.32124H23.4682V7.29297Z" fill="black"/>
<path d="M38.9595 23.2369V8.25461C38.9595 7.71751 39.3835 7.29348 39.9206 7.29348H41.3623C41.8711 7.29348 42.2104 7.51963 42.38 8.00019L42.6344 9.21574C42.9171 8.90479 43.228 8.59383 43.539 8.33942C43.8499 8.085 44.1892 7.83058 44.5566 7.66097C44.9241 7.46309 45.2916 7.32175 45.7157 7.20867C46.1397 7.0956 46.5637 7.03906 47.0725 7.03906C48.1185 7.03906 48.9665 7.32175 49.6167 7.88712C50.2952 8.45249 50.7757 9.18747 51.115 10.1203C51.3694 9.58323 51.6803 9.10267 52.0761 8.70691C52.4718 8.31115 52.8676 8.00019 53.3482 7.74578C53.8005 7.49136 54.281 7.32175 54.8181 7.20867C55.327 7.0956 55.8641 7.03906 56.3729 7.03906C57.2775 7.03906 58.0973 7.18041 58.7757 7.46309C59.4824 7.74578 60.0761 8.14154 60.5566 8.67864C61.0372 9.21574 61.4047 9.86592 61.6591 10.6292C61.9135 11.3924 62.0266 12.2687 62.0266 13.2581V22.8412C62.0266 23.3217 61.6309 23.7175 61.1503 23.7175H58.9453C58.4648 23.7175 58.069 23.3217 58.069 22.8412V13.2864C58.069 12.2405 57.8429 11.449 57.3906 10.9119C56.9383 10.3748 56.2598 10.1203 55.3835 10.1203C54.9877 10.1203 54.592 10.1769 54.2528 10.3182C53.9135 10.4596 53.6026 10.6574 53.3482 10.9119C53.0938 11.1663 52.8676 11.5055 52.7263 11.9013C52.5849 12.297 52.5001 12.7493 52.5001 13.2581V22.8412C52.5001 23.3217 52.1044 23.7175 51.6238 23.7175H49.3623C48.8817 23.7175 48.486 23.3217 48.486 22.8412V13.2864C48.486 12.1839 48.2598 11.3924 47.8358 10.8836C47.3835 10.3748 46.7333 10.1203 45.8853 10.1203C45.3199 10.1203 44.7828 10.2617 44.3022 10.5444C43.7934 10.827 43.3411 11.2228 42.9171 11.7034V23.2369C42.9171 23.4914 42.6909 23.7175 42.4365 23.7175H39.44C39.1574 23.7175 38.9595 23.5196 38.9595 23.2369Z" fill="black"/>
<path d="M70.7048 2.5159C70.7048 2.85512 70.6483 3.16608 70.507 3.47703C70.3656 3.78799 70.196 4.0424 69.9416 4.26855C69.7154 4.4947 69.4328 4.66431 69.1218 4.80565C68.8109 4.947 68.4716 5.00353 68.1324 5.00353C67.7932 5.00353 67.4822 4.947 67.1713 4.80565C66.8603 4.66431 66.6059 4.4947 66.3798 4.26855C66.1536 4.0424 65.984 3.78799 65.8427 3.47703C65.7013 3.16608 65.6448 2.85512 65.6448 2.5159C65.6448 2.17668 65.7013 1.83746 65.8427 1.5265C65.984 1.21555 66.1536 0.961131 66.3798 0.734982C66.6059 0.508834 66.8603 0.339223 67.1713 0.19788C67.4822 0.0565371 67.7932 0 68.1324 0C68.4716 0 68.8109 0.0565371 69.1218 0.19788C69.4328 0.339223 69.6872 0.508834 69.9416 0.734982C70.1677 0.961131 70.3656 1.21555 70.507 1.5265C70.62 1.83746 70.7048 2.17668 70.7048 2.5159ZM70.1112 7.77385V23.265C70.1112 23.5194 69.9133 23.7456 69.6306 23.7456H66.6059C66.3515 23.7456 66.1253 23.5477 66.1253 23.265V7.77385C66.1253 7.51943 66.3232 7.29329 66.6059 7.29329H69.6306C69.8851 7.29329 70.1112 7.51943 70.1112 7.77385Z" fill="black"/>
<path d="M74.804 22.2757V2.03545C74.804 1.24393 75.4541 0.59375 76.2457 0.59375H82.7757C84.3022 0.59375 85.5743 0.735093 86.6485 1.01778C87.7227 1.30046 88.599 1.72449 89.2775 2.26159C89.9559 2.7987 90.4647 3.44887 90.804 4.21212C91.1149 4.97538 91.2845 5.82343 91.2845 6.78456C91.2845 7.32166 91.1997 7.85877 91.0584 8.33933C90.917 8.8199 90.6626 9.30046 90.3234 9.72449C89.9842 10.1485 89.5601 10.5443 89.0513 10.9118C88.5425 11.251 87.9206 11.5619 87.2138 11.8164C90.3799 12.5231 91.9912 14.2475 91.9912 16.9612C91.9912 17.9506 91.7934 18.8552 91.4259 19.675C91.0584 20.4948 90.5213 21.2298 89.7863 21.8234C89.0796 22.4171 88.2033 22.8976 87.1573 23.2369C86.1114 23.5761 84.9241 23.7457 83.5672 23.7457H76.2739C75.4259 23.7174 74.804 23.0672 74.804 22.2757ZM79.1008 10.6008H82.5495C84.0195 10.6008 85.122 10.3464 85.8852 9.8093C86.6485 9.27219 87.016 8.42414 87.016 7.26513C87.016 6.04958 86.6767 5.20152 85.9983 4.69269C85.3199 4.18386 84.2456 3.92944 82.804 3.92944H79.129V10.6008H79.1008ZM79.1008 13.569V20.3535H83.4824C84.2739 20.3535 84.9524 20.2687 85.4895 20.0708C86.0266 19.8729 86.4506 19.6185 86.7898 19.3075C87.129 18.9966 87.3552 18.6008 87.4965 18.1768C87.6379 17.7528 87.7227 17.3005 87.7227 16.8199C87.7227 16.3111 87.6379 15.8588 87.4965 15.463C87.3269 15.0672 87.0725 14.728 86.7333 14.4453C86.3941 14.1627 85.9418 13.9365 85.4329 13.7952C84.8958 13.6538 84.2457 13.569 83.4824 13.569H79.1008Z" fill="black"/>
<path d="M100.217 2.5159C100.217 2.85512 100.161 3.16608 100.019 3.47703C99.8781 3.78799 99.7085 4.0424 99.4541 4.26855C99.2279 4.4947 98.9452 4.66431 98.6343 4.80565C98.3233 4.947 97.9841 5.00353 97.6449 5.00353C97.3056 5.00353 96.9947 4.947 96.6837 4.80565C96.3728 4.66431 96.1184 4.4947 95.8922 4.26855C95.6661 4.0424 95.4965 3.78799 95.3551 3.47703C95.2138 3.16608 95.1572 2.85512 95.1572 2.5159C95.1572 2.17668 95.2138 1.83746 95.3551 1.5265C95.4965 1.21555 95.6661 0.961131 95.8922 0.734982C96.1184 0.508834 96.3728 0.339223 96.6837 0.19788C96.9947 0.0565371 97.3056 0 97.6449 0C97.9841 0 98.3233 0.0565371 98.6343 0.19788C98.9452 0.339223 99.1996 0.508834 99.4541 0.734982C99.6802 0.961131 99.8781 1.21555 100.019 1.5265C100.161 1.83746 100.217 2.17668 100.217 2.5159ZM99.6237 7.71732V23.3216C99.6237 23.5477 99.4258 23.7456 99.1996 23.7456H96.0618C95.8357 23.7456 95.6378 23.5477 95.6378 23.3216V7.71732C95.6378 7.49117 95.8357 7.29329 96.0618 7.29329H99.1996C99.454 7.29329 99.6237 7.49117 99.6237 7.71732Z" fill="black"/>
<path d="M115.963 8.93357C115.963 9.18799 115.906 9.44241 115.822 9.69682C115.709 9.97951 115.595 10.2057 115.454 10.4035L107.652 20.665H115.115C115.482 20.665 115.765 20.9477 115.765 21.3152V23.0678C115.765 23.4353 115.482 23.718 115.115 23.718H103.751C103.383 23.718 103.073 23.4071 103.073 23.0396V22.0784C103.073 21.9088 103.129 21.6827 103.214 21.4283C103.299 21.1739 103.44 20.9477 103.61 20.7216L111.497 10.347H104.203C103.836 10.347 103.525 10.036 103.525 9.66856V8.00071C103.525 7.63322 103.836 7.32227 104.203 7.32227H115.285C115.652 7.32227 115.963 7.63322 115.963 8.00071V8.93357Z" fill="black"/>
</svg>
