<svg width="32" height="32" viewBox="0 0 32 32" fill="none" xmlns="http://www.w3.org/2000/svg">
<g id="Frame">
<g id="Group">
<path id="Vector" d="M27.6917 3.25333H4.30933C3.23768 3.25446 2.21023 3.6806 1.45236 4.43827C0.694484 5.19595 0.268074 6.22328 0.266663 7.29493V24.704C0.267792 25.7758 0.694077 26.8035 1.45198 27.5614C2.20988 28.3193 3.23749 28.7455 4.30933 28.7467H27.6917C28.7634 28.7453 29.7907 28.3188 30.5484 27.561C31.3061 26.8031 31.7322 25.7757 31.7333 24.704V7.29493C31.7316 6.22356 31.3053 5.19654 30.5477 4.43896C29.7901 3.68138 28.7631 3.25503 27.6917 3.25333ZM30.1333 24.704C30.1328 25.3515 29.8754 25.9723 29.4176 26.4302C28.9599 26.8882 28.3392 27.1458 27.6917 27.1467H4.30933C3.66167 27.1461 3.04069 26.8886 2.58273 26.4306C2.12476 25.9726 1.86723 25.3517 1.86666 24.704V20.96L9.21706 13.6149C9.6352 13.2064 10.3648 13.1947 10.7563 13.6469L20.3883 24.1557C21.0944 24.9227 22.2741 23.8496 21.568 23.0741L19.3867 20.6933L22.24 17.6139C22.6293 17.1723 23.3643 17.1637 23.7728 17.584L30.1333 23.9573V24.704ZM30.1333 21.6949L24.9067 16.4587C24.653 16.2053 24.3508 16.0057 24.0183 15.8717C23.6857 15.7378 23.3295 15.6723 22.971 15.6792C22.6125 15.6861 22.2591 15.7651 21.9319 15.9117C21.6047 16.0583 21.3104 16.2694 21.0667 16.5323L18.3029 19.5189L11.9349 12.5728C10.9696 11.4603 9.09653 11.4037 8.0864 12.4853L1.86666 18.6976V7.29493C1.86751 6.64746 2.12517 6.02676 2.5831 5.56902C3.04104 5.11128 3.66185 4.8539 4.30933 4.85333H27.6917C28.3389 4.85446 28.9593 5.11206 29.417 5.56971C29.8746 6.02735 30.1322 6.64773 30.1333 7.29493V21.6949Z" fill="#929292"/>
<path id="Vector_2" d="M17.9936 7.58614C13.9211 7.6896 13.9243 13.6491 17.9915 13.76C22.0629 13.6587 22.064 7.69067 17.9936 7.58614ZM17.9936 12.16C16.0373 12.1269 16.0405 9.2256 17.9915 9.18507V9.18614C19.9467 9.21814 19.9477 12.1259 17.9936 12.16Z" fill="#A8A8BC"/>
</g>
</g>
</svg>
