<svg width="47" height="47" viewBox="0 0 47 47" fill="none" xmlns="http://www.w3.org/2000/svg">
<path d="M27.5423 5.65766C27.5423 7.88796 25.7301 9.63039 23.5695 9.63039C21.3392 9.63039 19.5271 7.81826 19.5271 5.65766C19.5271 3.42736 21.3392 1.61523 23.5695 1.61523C25.7998 1.68493 27.5423 3.49705 27.5423 5.65766Z" fill="url(#paint0_linear_8805_1383)"/>
<path d="M37.3 11.4416L33.8152 14.578C33.0485 15.2053 32.0727 15.4144 31.1667 15.0659L29.7727 14.578V20.4326H17.2273V14.578L15.8333 15.0659C14.9273 15.4144 13.8818 15.2053 13.1152 14.578L9.63032 11.4416C9.21214 11.0932 9.00305 10.5356 8.93335 10.0477C8.93335 9.49013 9.07274 8.93256 9.49092 8.51438C10.2576 7.67801 11.5121 7.60831 12.3485 8.30528L15.3455 10.7447C15.4152 10.8144 15.5546 10.8144 15.6243 10.8144C17.5758 9.90832 18.0637 9.42044 19.1788 9.42044H19.5273C20.503 10.4659 21.897 11.1629 23.5 11.1629C25.0333 11.1629 26.497 10.5356 27.4727 9.42044H27.6818C28.797 9.42044 29.3546 9.97801 31.2364 10.8144C31.3758 10.8841 31.5152 10.8841 31.5849 10.7447L34.5121 8.30528C35.3485 7.60831 36.6031 7.67801 37.3697 8.51438C38.2061 9.35074 38.1364 10.675 37.3 11.4416ZM37.0909 22.5235V25.1023C37.0909 26.7053 35.8364 28.0295 34.2334 28.0992V35.5568C33.7455 35.7659 33.2576 36.0447 32.8394 36.3932V28.0992H14.1606V36.3932C13.7424 36.0447 13.2546 35.7659 12.7667 35.5568V28.0992C11.1637 28.0295 9.90911 26.7053 9.90911 25.1023V22.5235C9.90911 22.1053 10.2576 21.8265 10.6061 21.8265H36.4637C36.8121 21.8265 37.0909 22.175 37.0909 22.5235ZM45.8031 41.9689V44.6174C45.8031 44.9659 45.4546 45.3144 45.1061 45.3144H32.2121C31.8637 45.3144 31.5152 44.9659 31.5152 44.6174V41.9689C31.5152 39.3901 33.2576 37.1598 35.697 36.5326C36.5334 37.1598 37.5788 37.5083 38.694 37.5083C39.8091 37.5083 40.8546 37.1598 41.6909 36.5326C44.0606 37.1598 45.8031 39.3901 45.8031 41.9689Z" fill="url(#paint1_linear_8805_1383)"/>
<path d="M34.8607 32.2826C34.8607 30.1916 36.5334 28.4492 38.694 28.4492C40.7849 28.4492 42.4576 30.1916 42.4576 32.2826C42.4576 34.3735 40.7152 36.0462 38.6243 36.0462C36.5334 36.0462 34.8607 34.3735 34.8607 32.2826ZM30.6788 41.9704V44.6189C30.6788 44.9674 30.4001 45.3159 29.9819 45.3159H17.0182C16.6001 45.3159 16.3213 44.9674 16.3213 44.6189V41.9704C16.3213 39.3916 18.0637 37.1613 20.5031 36.5341C21.3394 37.1613 22.3849 37.5098 23.5001 37.5098C24.6152 37.5098 25.6607 37.1613 26.497 36.5341C28.8667 37.1613 30.6788 39.3916 30.6788 41.9704ZM4.54248 32.2826C4.54248 30.1916 6.2152 28.4492 8.30611 28.4492C10.397 28.4492 12.0697 30.1916 12.0697 32.2826C12.0697 34.3735 10.4667 36.0462 8.37581 36.0462C6.2849 36.0462 4.54248 34.3735 4.54248 32.2826ZM15.4849 41.9704V44.6189C15.4849 44.9674 15.2061 45.3159 14.7879 45.3159H1.89399C1.47581 45.3159 1.19702 44.9674 1.19702 44.6189V41.9704C1.19702 39.3916 2.93945 37.1613 5.37884 36.5341C6.2152 37.1613 7.26066 37.5098 8.37581 37.5098C9.49096 37.5098 10.5364 37.1613 11.3728 36.5341C13.7425 37.1613 15.4849 39.3916 15.4849 41.9704ZM19.7364 32.2826C19.7364 30.1916 21.4091 28.4492 23.5001 28.4492C25.591 28.4492 27.2637 30.1916 27.2637 32.2826C27.2637 34.3735 25.591 36.0462 23.5001 36.0462C21.4091 36.0462 19.7364 34.3735 19.7364 32.2826Z" fill="url(#paint2_linear_8805_1383)"/>
<defs>
<linearGradient id="paint0_linear_8805_1383" x1="23.5347" y1="1.61523" x2="23.5347" y2="9.63039" gradientUnits="userSpaceOnUse">
<stop stop-color="#3EE1D0"/>
<stop offset="1" stop-color="#00C9E4"/>
</linearGradient>
<linearGradient id="paint1_linear_8805_1383" x1="27.3682" y1="7.83008" x2="27.3682" y2="45.3144" gradientUnits="userSpaceOnUse">
<stop stop-color="#3EE1D0"/>
<stop offset="1" stop-color="#00C9E4"/>
</linearGradient>
<linearGradient id="paint2_linear_8805_1383" x1="21.8273" y1="28.4492" x2="21.8273" y2="45.3159" gradientUnits="userSpaceOnUse">
<stop stop-color="#3EE1D0"/>
<stop offset="1" stop-color="#00C9E4"/>
</linearGradient>
</defs>
</svg>
