<svg width="24" height="24" viewBox="0 0 24 24" fill="none" xmlns="http://www.w3.org/2000/svg">
<g clip-path="url(#clip0_12907_202)">
<path d="M11.9531 0.75C5.27836 0.75 0 5.52858 0 11.2969C0 13.7542 0.972328 16.1348 2.742 18.021C3.09216 19.4649 2.66705 20.9948 1.61222 22.0497C1.17122 22.4907 1.48336 23.25 2.10938 23.25C4.113 23.25 6.04425 22.4648 7.48003 21.081C8.89997 21.5873 10.4024 21.8438 11.9531 21.8438C18.6464 21.8438 24 17.0512 24 11.2969C24 5.53936 18.6427 0.75 11.9531 0.75ZM11.9531 20.4469C10.4193 20.4469 8.94061 20.1583 7.55803 19.6077C7.42543 19.5549 7.27989 19.5437 7.14076 19.5756C7.00164 19.6075 6.87552 19.681 6.77916 19.7863C5.92987 20.7143 4.82583 21.3615 3.6232 21.659C4.28583 20.3892 4.45519 18.8923 4.05183 17.4742C4.02004 17.3624 3.961 17.2602 3.87998 17.1768C2.28478 15.5337 1.39687 13.4455 1.39687 11.2969C1.39687 6.25673 6.13758 2.14687 11.9531 2.14687C17.8204 2.14687 22.6031 6.25673 22.6031 11.2969C22.6031 16.337 17.8204 20.4469 11.9531 20.4469Z" fill="white"/>
<path d="M6.32812 9.1875C5.16502 9.1875 4.21875 10.1338 4.21875 11.2969C4.21875 12.46 5.16502 13.4062 6.32812 13.4062C7.49123 13.4062 8.4375 12.46 8.4375 11.2969C8.4375 10.1338 7.49123 9.1875 6.32812 9.1875ZM6.32812 12C5.94042 12 5.625 11.6846 5.625 11.2969C5.625 10.9092 5.94042 10.5938 6.32812 10.5938C6.71583 10.5938 7.03125 10.9092 7.03125 11.2969C7.03125 11.6846 6.71583 12 6.32812 12ZM11.9531 9.1875C10.79 9.1875 9.84375 10.1338 9.84375 11.2969C9.84375 12.46 10.79 13.4062 11.9531 13.4062C13.1162 13.4062 14.0625 12.46 14.0625 11.2969C14.0625 10.1338 13.1162 9.1875 11.9531 9.1875ZM11.9531 12C11.5654 12 11.25 11.6846 11.25 11.2969C11.25 10.9092 11.5654 10.5938 11.9531 10.5938C12.3408 10.5938 12.6562 10.9092 12.6562 11.2969C12.6562 11.6846 12.3408 12 11.9531 12ZM17.6719 9.1875C16.5088 9.1875 15.5625 10.1338 15.5625 11.2969C15.5625 12.46 16.5088 13.4062 17.6719 13.4062C18.835 13.4062 19.7812 12.46 19.7812 11.2969C19.7812 10.1338 18.835 9.1875 17.6719 9.1875ZM17.6719 12C17.2842 12 16.9688 11.6846 16.9688 11.2969C16.9688 10.9092 17.2842 10.5938 17.6719 10.5938C18.0596 10.5938 18.375 10.9092 18.375 11.2969C18.375 11.6846 18.0596 12 17.6719 12Z" fill="white"/>
</g>
<defs>
<clipPath id="clip0_12907_202">
<rect width="24" height="24" fill="white"/>
</clipPath>
</defs>
</svg>
