<svg width="46" height="47" viewBox="0 0 46 47" fill="none" xmlns="http://www.w3.org/2000/svg">
<g id="Frame" clip-path="url(#clip0_8805_1397)">
<g id="Group">
<path id="Vector" fill-rule="evenodd" clip-rule="evenodd" d="M20.823 5.76215L20.8231 5.76206L23.0002 0.5L25.1772 5.76215L30.4219 6.34739L26.5227 9.90305L27.5869 15.0721L23 12.4626L18.4133 15.0722L19.4776 9.90305L15.5785 6.34748L20.823 5.76215ZM9.7068 39.6256C9.00477 39.2503 8.73892 38.3735 9.11446 37.6713C9.11446 37.6713 10.5224 35.0392 10.5232 35.0373C10.8928 34.3461 11.7895 34.0763 12.479 34.4448C13.1697 34.8146 13.4395 35.7098 13.0703 36.3995L11.659 39.0372C11.2821 39.736 10.4078 40.0003 9.7068 39.6256ZM38.2175 32.658C37.9799 32.3646 37.6898 32.1182 37.3619 31.9312L29.6894 27.5583C29.018 27.1753 28.3263 27.0242 27.6237 27.0242C26.264 27.0242 24.8638 27.5912 23.4949 28.1449C20.8942 29.1985 18.6203 30.1188 16.495 27.7984C18.5554 26.548 20.3156 25.1909 21.7358 23.7561C22.361 23.1242 22.9962 22.5838 23.6233 22.15C26.6207 20.0779 28.6939 20.9252 30.699 21.7446C32.1606 22.3422 33.6718 22.9603 35.255 22.1363L38.3927 20.4568L42.4266 30.8638L38.2175 32.658ZM37.1748 35.2431C37.5527 34.5561 37.2927 33.6736 36.5952 33.2761L28.9228 28.9032C27.6045 28.1513 25.9691 28.8133 24.0758 29.5807C21.2322 30.7311 17.6935 32.1645 14.7019 28.0422C14.6382 27.9542 14.5936 27.8538 14.5711 27.7475C14.5487 27.6411 14.5488 27.5313 14.5716 27.425C14.5943 27.3188 14.6393 27.2185 14.7034 27.1308C14.7675 27.0431 14.8494 26.9699 14.9437 26.9159C17.222 25.6103 19.1369 24.181 20.6352 22.6668C21.0102 22.2869 21.4037 21.9257 21.8142 21.5844C20.113 20.8116 18.6722 21.1517 17.1605 21.5092C15.699 21.8542 14.1881 22.2113 12.6458 21.358L8.27515 19.3417L3.61549 29.2566C3.69248 29.2903 3.77757 29.3292 3.87172 29.3716C5.17598 29.959 7.60383 31.0533 8.04955 31.2267C9.18877 31.6686 9.4627 32.7747 9.62819 33.6563C9.98056 33.2856 10.4249 33.0099 10.9294 32.857C11.696 32.6251 12.5053 32.7045 13.2079 33.0797C13.9085 33.4531 14.4235 34.0813 14.6566 34.8473C14.7141 35.0363 14.7532 35.2304 14.7732 35.427C15.4479 35.2768 16.1773 35.3562 16.8334 35.7078C17.534 36.0812 18.049 36.7094 18.282 37.4754C18.2971 37.5247 18.311 37.5749 18.3234 37.6256C18.3708 37.6084 18.4188 37.5926 18.4672 37.5782C19.2338 37.3449 20.0431 37.4243 20.7456 37.801C21.4462 38.1735 21.9611 38.8012 22.1941 39.5677C22.2093 39.6179 22.223 39.6672 22.2354 39.7174C22.2831 39.7008 22.3311 39.685 22.3794 39.67C23.146 39.4381 23.9551 39.5175 24.6578 39.8928C24.9962 40.0727 25.2964 40.3166 25.5419 40.6108L28.9083 42.4725C29.6062 42.8569 30.486 42.6012 30.8699 41.9037C31.2498 41.2116 30.9914 40.3302 30.2939 39.9384L25.5582 37.2724C25.1856 37.0625 25.0536 36.5904 25.2633 36.2179C25.3131 36.1293 25.3799 36.0514 25.4599 35.9887C25.5399 35.9259 25.6314 35.8796 25.7293 35.8522C25.8272 35.8249 25.9296 35.8171 26.0305 35.8293C26.1314 35.8416 26.2289 35.8736 26.3175 35.9235L32.3088 39.2715C33.0065 39.655 33.8865 39.3993 34.2703 38.7018C34.6502 38.0107 34.3919 37.1292 33.6943 36.7366C33.6754 36.7256 28.9593 34.0592 28.9593 34.0592C28.5872 33.8482 28.4558 33.3757 28.666 33.0047C28.8764 32.6322 29.3486 32.5002 29.7208 32.7102L35.2209 35.8171C35.8927 36.1964 36.8048 35.9156 37.1748 35.2431ZM28.0972 45.441C27.7134 46.1386 26.8334 46.3943 26.1356 46.0112L25.0878 45.4341L25.8856 43.9422C26.0807 43.5781 26.1977 43.1773 26.2291 42.7654L27.5189 43.4748L27.5258 43.4785C28.2236 43.8647 28.4798 44.7453 28.0972 45.441ZM22.3144 46.4366C21.9435 46.5489 21.5532 46.511 21.2153 46.3302C20.513 45.9549 20.2472 45.078 20.6226 44.3755L21.9734 41.85C22.3435 41.1584 23.2372 40.8882 23.9291 41.2589C24.6074 41.6218 24.892 42.5179 24.5204 43.2127L23.1698 45.7381C22.9889 46.076 22.6853 46.3244 22.3144 46.4366ZM18.2092 44.7047C17.8383 44.817 17.4479 44.779 17.1099 44.5983C16.4077 44.223 16.142 43.3461 16.5176 42.6435L18.0607 39.758C18.0607 39.758 18.0609 39.758 18.0609 39.7576C18.2416 39.4198 18.5454 39.1719 18.9162 39.0596C19.2871 38.9473 19.6777 38.9852 20.0168 39.166C20.3531 39.3449 20.6005 39.6481 20.713 40.0188C20.8262 40.3913 20.789 40.782 20.6082 41.1199L19.0646 44.0064C18.884 44.3436 18.5801 44.5923 18.2092 44.7047ZM13.9316 43.295C14.3026 43.1827 14.6062 42.9339 14.787 42.5961L16.6958 39.0276C17.0646 38.3379 16.7946 37.4426 16.1047 37.0742C15.4369 36.7168 14.5101 36.9907 14.1524 37.6586C14.1515 37.6605 12.24 41.234 12.24 41.234C11.8643 41.9366 12.13 42.813 12.8325 43.1887C13.1704 43.3694 13.5608 43.4073 13.9316 43.295ZM41.1841 12.8265L41.1843 12.8266L42.0182 16.8778L38.4233 14.8321L34.828 16.8779L35.6622 12.8266L32.606 10.0395L36.7168 9.58096L38.4232 5.81282L40.1296 9.5806L44.2404 10.0397L41.1841 12.8265ZM1.75977 10.0393L5.87066 9.58078L7.57706 5.81264L9.28355 9.58042L13.394 10.0395L10.338 12.8264L11.1722 16.8777L7.57706 14.8321L3.98196 16.8777L4.81598 12.8264L1.75977 10.0393Z" fill="url(#paint0_linear_8805_1397)"/>
</g>
</g>
<defs>
<linearGradient id="paint0_linear_8805_1397" x1="23.0001" y1="0.5" x2="23.0001" y2="46.4999" gradientUnits="userSpaceOnUse">
<stop stop-color="#3EE1D0"/>
<stop offset="1" stop-color="#00C9E4"/>
</linearGradient>
<clipPath id="clip0_8805_1397">
<rect width="46" height="46" fill="white" transform="translate(0 0.5)"/>
</clipPath>
</defs>
</svg>
