<svg width="21" height="16" viewBox="0 0 21 16" fill="none" xmlns="http://www.w3.org/2000/svg">
<path id="Vector" d="M1.32222 11.1391L0.0928146 3.1483C0.00187191 2.55818 0.674174 2.15534 1.15179 2.51372L4.98216 5.38616C5.08172 5.46075 5.19544 5.51426 5.31637 5.54343C5.43731 5.5726 5.56292 5.57682 5.68553 5.55582C5.80815 5.53483 5.9252 5.48907 6.02954 5.42133C6.13389 5.35359 6.22333 5.2653 6.29241 5.16184L9.48146 0.378928C9.81829 -0.126309 10.5606 -0.126309 10.8975 0.378928L14.0865 5.16184C14.1556 5.2653 14.245 5.35359 14.3494 5.42133C14.4537 5.48907 14.5708 5.53483 14.6934 5.55582C14.816 5.57682 14.9416 5.5726 15.0626 5.54343C15.1835 5.51426 15.2972 5.46075 15.3968 5.38616L19.2271 2.51372C19.7054 2.15534 20.3771 2.55818 20.2861 3.1483L19.0567 11.1391H1.32222ZM18.1318 15.5731H2.24714C2.12568 15.5731 2.00541 15.5492 1.89319 15.5027C1.78098 15.4562 1.67901 15.3881 1.59313 15.3022C1.41967 15.1287 1.32222 14.8935 1.32222 14.6482V12.6171H19.0567V14.6482C19.0567 15.1588 18.6424 15.5731 18.1318 15.5731Z" fill="#FFB743"/>
</svg>
