<svg width="36" height="36" viewBox="0 0 36 36" fill="none" xmlns="http://www.w3.org/2000/svg">
<path fill-rule="evenodd" clip-rule="evenodd" d="M26.4023 19.58C26.76 19.77 27.036 20.07 27.2301 20.37C27.6083 20.99 27.5776 21.75 27.2097 22.42L26.4943 23.62C26.1162 24.26 25.411 24.66 24.6855 24.66C24.3278 24.66 23.9292 24.56 23.6022 24.36C23.3365 24.19 23.0299 24.13 22.7029 24.13C21.6911 24.13 20.8429 24.96 20.8122 25.95C20.8122 27.1 19.872 28 18.6968 28H17.3069C16.1215 28 15.1813 27.1 15.1813 25.95C15.1608 24.96 14.3126 24.13 13.3009 24.13C12.9636 24.13 12.657 24.19 12.4015 24.36C12.0745 24.56 11.6657 24.66 11.3183 24.66C10.5824 24.66 9.87729 24.26 9.49917 23.62L8.79402 22.42C8.4159 21.77 8.39546 20.99 8.77358 20.37C8.93709 20.07 9.24368 19.77 9.59115 19.58C9.87729 19.44 10.0612 19.21 10.235 18.94C10.746 18.08 10.4394 16.95 9.57071 16.44C8.55897 15.87 8.23194 14.6 8.81446 13.61L9.49917 12.43C10.0919 11.44 11.3591 11.09 12.3811 11.67C13.2702 12.15 14.425 11.83 14.9462 10.98C15.1097 10.7 15.2017 10.4 15.1813 10.1C15.1608 9.71 15.2732 9.34 15.4674 9.04C15.8455 8.42 16.5302 8.02 17.2763 8H18.7172C19.4735 8 20.1582 8.42 20.5363 9.04C20.7203 9.34 20.8429 9.71 20.8122 10.1C20.7918 10.4 20.8838 10.7 21.0473 10.98C21.5685 11.83 22.7233 12.15 23.6226 11.67C24.6344 11.09 25.9118 11.44 26.4943 12.43L27.179 13.61C27.7718 14.6 27.4447 15.87 26.4228 16.44C25.5541 16.95 25.2475 18.08 25.7687 18.94C25.9322 19.21 26.1162 19.44 26.4023 19.58ZM15.1097 18.01C15.1097 19.58 16.4076 20.83 18.0121 20.83C19.6165 20.83 20.8838 19.58 20.8838 18.01C20.8838 16.44 19.6165 15.18 18.0121 15.18C16.4076 15.18 15.1097 16.44 15.1097 18.01Z" fill="#B3BAC5"/>
<circle cx="18" cy="18" r="17.5" stroke="#B3BAC5"/>
</svg>
