<svg width="43" height="43" viewBox="0 0 43 43" fill="none" xmlns="http://www.w3.org/2000/svg">
<circle cx="21.5" cy="21.5" r="21.5" fill="#067166"/>
<circle cx="21.5" cy="21.5" r="21" stroke="white" stroke-opacity="0.6"/>
<path d="M9.55859 26.1852L7.946 15.7038C7.82671 14.9297 8.70856 14.4013 9.33504 14.8714L14.3593 18.6391C14.4899 18.737 14.639 18.8072 14.7976 18.8454C14.9563 18.8837 15.121 18.8892 15.2819 18.8617C15.4427 18.8341 15.5962 18.7741 15.7331 18.6853C15.87 18.5964 15.9873 18.4806 16.0779 18.3449L20.2609 12.0713C20.7027 11.4085 21.6765 11.4085 22.1183 12.0713L26.3013 18.3449C26.3919 18.4806 26.5092 18.5964 26.6461 18.6853C26.7829 18.7741 26.9365 18.8341 27.0973 18.8617C27.2581 18.8892 27.4229 18.8837 27.5815 18.8454C27.7402 18.8072 27.8893 18.737 28.0199 18.6391L33.0441 14.8714C33.6715 14.4013 34.5525 14.9297 34.4332 15.7038L32.8206 26.1852H9.55859ZM31.6074 32.0011H10.7718C10.6125 32.0011 10.4547 31.9698 10.3075 31.9088C10.1603 31.8478 10.0266 31.7585 9.91393 31.6458C9.68641 31.4183 9.55859 31.1097 9.55859 30.7879V28.1238H32.8206V30.7879C32.8206 31.4577 32.2772 32.0011 31.6074 32.0011Z" fill="#FFB743"/>
</svg>
