<svg width="24" height="23" viewBox="0 0 24 23" fill="none" xmlns="http://www.w3.org/2000/svg">
<g clip-path="url(#clip0_8808_4790)">
<path d="M11.5 0.5C8.59223 0.5 6.22656 2.98395 6.22656 6.03711C6.22656 9.09027 8.59223 11.5742 11.5 11.5742C14.4078 11.5742 16.7734 9.09027 16.7734 6.03711C16.7734 2.98395 14.4078 0.5 11.5 0.5ZM18.0612 15.1916C16.6174 13.6524 14.7035 12.8047 12.6719 12.8047H10.3281C8.29656 12.8047 6.38258 13.6524 4.93883 15.1916C3.50215 16.7233 2.71094 18.7451 2.71094 20.8848C2.71094 21.2245 2.97328 21.5 3.29687 21.5H19.7031C20.0267 21.5 20.2891 21.2245 20.2891 20.8848C20.2891 18.7451 19.4978 16.7233 18.0612 15.1916Z" fill="#A5ADBA"/>
</g>
<defs>
<clipPath id="clip0_8808_4790">
<rect width="20" height="21" fill="white" transform="translate(1.5 0.5)"/>
</clipPath>
</defs>
</svg>
