<svg width="18" height="20" viewBox="0 0 18 20" fill="none" xmlns="http://www.w3.org/2000/svg">
<path id="Vector" d="M9.95627 19.9439C13.9683 19.4945 17.1836 16.2874 17.6411 12.2754C18.2417 7.02958 14.1644 2.5641 9.05336 2.5069V0.153637C9.05336 0.0229002 8.88994 -0.0465538 8.77964 0.0351567L3.9342 3.59365C3.85249 3.65493 3.85249 3.77341 3.9342 3.8347L8.77964 7.39319C8.88994 7.4749 9.05336 7.40136 9.05336 7.27471V4.92553C12.6445 4.98273 15.5208 8.0387 15.2756 11.6912C15.0673 14.8329 12.5056 17.3823 9.36386 17.5825C6.03416 17.7949 3.20289 15.4172 2.69629 12.2713C2.60232 11.6871 2.09163 11.2622 1.50331 11.2622C0.772004 11.2622 0.20003 11.9118 0.314425 12.6349C1.02531 17.1167 5.16394 20.4791 9.95627 19.9439Z" fill="white"/>
</svg>
