<svg width="306" height="231" viewBox="0 0 306 231" fill="none" xmlns="http://www.w3.org/2000/svg">
<mask id="path-1-inside-1_5804_1537" fill="white">
<path d="M65 0H4C1.79086 0 0 1.79086 0 4V77H65V0Z"/>
</mask>
<path d="M65 -2H4C0.686292 -2 -2 0.686292 -2 4H2C2 2.89543 2.89543 2 4 2H65V-2ZM0 77H65H0ZM65 77V0V77ZM4 -2C0.686292 -2 -2 0.686292 -2 4V77H2V4C2 2.89543 2.89543 2 4 2V-2Z" fill="white" mask="url(#path-1-inside-1_5804_1537)"/>
<mask id="path-3-inside-2_5804_1537" fill="white">
<path d="M65 231H4C1.79086 231 0 229.209 0 227V154H65V231Z"/>
</mask>
<path d="M65 233H4C0.686292 233 -2 230.314 -2 227H2C2 228.105 2.89543 229 4 229H65V233ZM0 154H65H0ZM65 154V231V154ZM4 233C0.686292 233 -2 230.314 -2 227V154H2V227C2 228.105 2.89543 229 4 229V233Z" fill="white" mask="url(#path-3-inside-2_5804_1537)"/>
<mask id="path-5-inside-3_5804_1537" fill="white">
<path d="M241 0H302C304.209 0 306 1.79086 306 4V77H241V0Z"/>
</mask>
<path d="M241 -2H302C305.314 -2 308 0.686292 308 4H304C304 2.89543 303.105 2 302 2H241V-2ZM306 77H241H306ZM241 77V0V77ZM302 -2C305.314 -2 308 0.686292 308 4V77H304V4C304 2.89543 303.105 2 302 2V-2Z" fill="white" mask="url(#path-5-inside-3_5804_1537)"/>
<mask id="path-7-inside-4_5804_1537" fill="white">
<path d="M241 231H302C304.209 231 306 229.209 306 227V154H241V231Z"/>
</mask>
<path d="M241 233H302C305.314 233 308 230.314 308 227H304C304 228.105 303.105 229 302 229H241V233ZM306 154H241H306ZM241 154V231V154ZM302 233C305.314 233 308 230.314 308 227V154H304V227C304 228.105 303.105 229 302 229V233Z" fill="white" mask="url(#path-7-inside-4_5804_1537)"/>
</svg>
