<svg width="102" height="101" viewBox="0 0 102 101" fill="none" xmlns="http://www.w3.org/2000/svg">
<g id="Frame">
<g id="Group">
<path id="Vector (Stroke)" fill-rule="evenodd" clip-rule="evenodd" d="M81.3964 48.5933C82.0281 48.6459 82.4975 49.2007 82.4449 49.8323C82.2775 51.8411 81.6131 53.8383 80.6139 55.5106C79.5499 57.4483 77.8183 58.801 76.0356 59.7734C75.4791 60.0769 74.7819 59.8719 74.4784 59.3154C74.1749 58.7589 74.3799 58.0618 74.9364 57.7582C76.5139 56.8978 77.8369 55.8082 78.6102 54.3905C78.6177 54.3767 78.6255 54.363 78.6336 54.3496C79.4642 52.9653 80.0194 51.2976 80.1574 49.6417C80.21 49.01 80.7648 48.5406 81.3964 48.5933ZM76.1018 61.6943C76.4144 61.832 76.6494 62.1019 76.7429 62.4306L81.7942 80.1866C82.7361 83.5505 85.6874 85.9494 89.1498 86.0826L89.163 86.0831C90.7593 86.163 92.1597 86.4045 93.2391 86.8318C94.2744 87.2416 95.2816 87.9359 95.573 89.0848C95.8679 90.2063 95.3237 91.2346 94.6505 92.0075C93.9524 92.8091 92.9183 93.5771 91.688 94.2873C89.2137 95.7155 85.6978 97.0507 81.7196 97.987C77.8129 98.9244 74.0969 99.288 71.2353 99.0865C69.811 98.9862 68.5314 98.7415 67.5306 98.3126C66.5528 97.8936 65.6237 97.1975 65.3437 96.0775C65.0482 94.8952 65.6823 93.7777 66.416 92.9392C67.195 92.0488 68.34 91.1726 69.701 90.372C69.7178 90.3621 69.7348 90.3527 69.752 90.3437C72.7757 88.7662 74.2822 85.311 73.7421 81.9113L70.5302 63.8639C70.4708 63.5295 70.5624 63.186 70.7804 62.9257C70.9985 62.6654 71.3206 62.5151 71.6602 62.5151C72.1241 62.5151 72.7753 62.3922 73.3713 62.2433C73.3889 62.2388 73.4067 62.2349 73.4245 62.2313C74.1681 62.0826 74.656 61.9529 75.1257 61.718C75.4313 61.5652 75.7891 61.5565 76.1018 61.6943ZM73.9013 64.4768C73.6364 64.5426 73.3289 64.6124 73.0054 64.6711L76.0038 81.5193C76.005 81.5258 76.0061 81.5324 76.0072 81.539C76.6854 85.7782 74.8351 90.2649 70.8409 92.3647C69.6125 93.0897 68.6998 93.815 68.1435 94.4508C67.5382 95.1425 67.5602 95.4788 67.5706 95.5208C67.5967 95.625 67.7388 95.9045 68.4348 96.2028C69.1078 96.4912 70.1045 96.7057 71.3965 96.7967C73.9669 96.9777 77.4424 96.6529 81.1863 95.7543L81.1913 95.7531C85.0166 94.8531 88.3096 93.587 90.5404 92.2993C91.6629 91.6513 92.4557 91.0325 92.9196 90.4999C93.4068 89.9405 93.3589 89.6905 93.3528 89.6676L93.3483 89.6502C93.3308 89.5801 93.1926 89.2822 92.3942 88.9661C91.6384 88.6669 90.5159 88.4496 89.0548 88.3761C84.5634 88.2003 80.7852 85.0923 79.5845 80.8081C79.5843 80.8072 79.584 80.8064 79.5838 80.8056L74.8746 64.2521C74.5556 64.3399 74.2328 64.4102 73.9013 64.4768Z" fill="#F5F5F5"/>
<g id="Group_2">
<path id="Vector" d="M35.5464 95.7979C34.9342 98.2464 28.2009 98.7055 20.5494 96.8691C12.7448 95.0327 6.92968 91.6661 7.5418 89.3706C7.69483 87.9934 9.83726 87.2282 12.8979 87.2282C16.8767 87.0752 20.2433 84.3206 21.3145 80.4949L26.3645 62.7433C26.9767 63.0494 27.5888 63.2024 28.3539 63.3555C28.9661 63.5085 29.7312 63.6615 30.3433 63.6615L27.1297 81.7191C26.5176 85.5449 28.2009 89.5237 31.7206 91.36C34.3221 92.8903 35.8524 94.5737 35.5464 95.7979Z" fill="#131316"/>
<path id="Vector (Stroke)_2" fill-rule="evenodd" clip-rule="evenodd" d="M25.8992 61.6932C26.2119 61.5554 26.5697 61.5641 26.8753 61.7169C27.3449 61.9517 27.8329 62.0814 28.5765 62.2301C28.5943 62.2337 28.6121 62.2377 28.6297 62.2421C29.2257 62.3911 29.8768 62.5139 30.3408 62.5139C30.6803 62.5139 31.0025 62.6643 31.2206 62.9246C31.4386 63.1849 31.5302 63.5284 31.4707 63.8627L28.2589 81.9102C27.7188 85.3099 29.2253 88.765 32.2489 90.3426C32.2662 90.3516 32.2832 90.361 32.3 90.3709C33.6609 91.1714 34.8059 92.0477 35.585 92.9381C36.3187 93.7766 36.9528 94.8941 36.6573 96.0764C36.3772 97.1964 35.4481 97.8925 34.4704 98.3115C33.4696 98.7404 32.19 98.985 30.7657 99.0853C27.9041 99.2869 24.1881 98.9232 20.2814 97.9858C16.3032 97.0496 12.7873 95.7144 10.313 94.2862C9.08266 93.576 8.04863 92.808 7.35045 92.0063C6.69249 91.2509 6.15774 90.2515 6.40929 89.1595C6.59286 87.8795 7.65576 87.1225 8.712 86.713C9.82675 86.2807 11.2758 86.0825 12.8722 86.0806C16.3255 85.9386 19.2668 83.5425 20.2068 80.1855L20.2081 80.1809L25.2581 62.4294C25.3515 62.1008 25.5866 61.8309 25.8992 61.6932ZM27.1264 64.251L22.4172 80.8044C22.417 80.8052 22.4168 80.806 22.4166 80.8067C21.2153 85.0933 17.4338 88.2023 12.9394 88.3752C12.9247 88.3758 12.91 88.376 12.8953 88.376C11.4402 88.376 10.2964 88.5606 9.54187 88.8531C8.74655 89.1615 8.68506 89.4515 8.67996 89.4975C8.67362 89.5545 8.66301 89.611 8.64822 89.6665C8.64213 89.6893 8.59422 89.9394 9.08141 90.4987C9.5453 91.0313 10.3381 91.6502 11.4606 92.2981C13.6914 93.5858 16.9844 94.8519 20.8097 95.752L20.8147 95.7532C24.5586 96.6517 28.0341 96.9766 30.6045 96.7955C31.8965 96.7046 32.8932 96.4901 33.5662 96.2017C34.2622 95.9034 34.4043 95.6239 34.4303 95.5196C34.4408 95.4777 34.4628 95.1414 33.8575 94.4496C33.3012 93.8138 32.3885 93.0885 31.1601 92.3635C27.1659 90.2638 25.3156 85.777 25.9938 81.5379C25.9949 81.5313 25.996 81.5247 25.9972 81.5181L28.9956 64.67C28.6721 64.6113 28.3646 64.5415 28.0997 64.4757C27.7682 64.4091 27.4454 64.3387 27.1264 64.251Z" fill="#F5F5F5"/>
<path id="Vector_2" d="M17.1813 45.7565C15.3449 53.7141 20.2419 61.5186 28.1994 63.355C36.157 65.1914 43.9616 60.2944 45.7979 52.3368C46.7161 48.511 47.9404 36.1156 48.0934 24.0262L27.4343 19.2823C22.3843 30.1474 18.0994 41.9307 17.1813 45.7565ZM84.8207 45.7565C83.9025 41.9307 79.6176 30.1474 74.5676 19.2823L53.9085 24.0262C54.0616 35.9626 55.2858 48.511 56.204 52.3368C58.0404 60.2944 65.8449 65.1914 73.8025 63.355C81.607 61.5186 86.657 53.7141 84.8207 45.7565Z" fill="#131316"/>
<path id="Vector (Stroke)_3" fill-rule="evenodd" clip-rule="evenodd" d="M26.3921 18.7987C26.6206 18.3073 27.1616 18.0426 27.6898 18.1639L48.3489 22.9078C48.8755 23.0287 49.2465 23.5006 49.2397 24.041C49.0865 36.1425 47.8631 48.6385 46.9138 52.5999C44.9334 61.17 36.5159 66.4526 27.94 64.4736C19.3671 62.4952 14.0822 54.0761 16.0616 45.4987L16.0639 45.4889C17.0085 41.553 21.3305 29.689 26.3921 18.7987ZM74.3094 18.1639C74.8376 18.0426 75.3787 18.3073 75.6071 18.7987C80.6687 29.689 84.9907 41.553 85.9353 45.4889L85.9376 45.4987C87.9198 54.0878 82.4678 62.4951 74.064 64.4724L74.0592 64.4736C65.4833 66.4526 57.0658 61.17 55.0854 52.5999C54.1361 48.638 52.9127 35.9888 52.7596 24.0411C52.7526 23.5008 53.1236 23.0288 53.6503 22.9078L74.3094 18.1639ZM28.0841 20.6096C23.2199 31.2021 19.1683 42.3951 18.2971 46.0197C16.6069 53.3557 21.1156 60.5429 28.4562 62.2369C35.7938 63.9302 42.9839 59.4212 44.6783 52.079L44.6806 52.0692C45.5449 48.4679 46.7293 36.7063 46.9306 24.9373L28.0841 20.6096ZM55.0688 24.9373C55.2707 36.5694 56.4547 48.4694 57.3187 52.0692L57.321 52.079C59.0152 59.4204 66.2039 63.9293 73.5408 62.2374C80.743 60.5413 85.3892 53.3433 83.7022 46.02C82.8312 42.3957 78.7794 31.2023 73.9151 20.6096L55.0688 24.9373Z" fill="#F5F5F5"/>
<path id="Vector_3" d="M23.1494 29.0759C20.0888 36.4214 17.7934 43.0017 17.1813 45.7562C15.3449 53.7138 20.2419 61.5184 28.1994 63.3547C36.157 65.1911 43.9616 60.2941 45.7979 52.3365C46.5631 48.9699 47.6343 39.329 47.9403 29.0759H23.1494Z" fill="#131316"/>
<path id="Vector (Stroke)_4" fill-rule="evenodd" clip-rule="evenodd" d="M22.0887 28.6346C22.2669 28.2069 22.6848 27.9283 23.1481 27.9283H47.939C48.2493 27.9283 48.5464 28.054 48.7626 28.2767C48.9787 28.4994 49.0955 28.8001 49.0862 29.1103C48.7795 39.3856 47.7058 49.1148 46.9158 52.591L46.9149 52.5947C44.9366 61.1677 36.5175 66.4526 27.94 64.4732C19.3686 62.4952 14.084 54.0787 16.0605 45.5028C16.698 42.6382 19.0282 35.9797 22.0887 28.6346ZM23.9146 30.2238C21.0046 37.2738 18.8696 43.4435 18.3003 46.0053L18.2982 46.0144C16.6049 53.3521 21.114 60.5421 28.4562 62.2365C35.7932 63.9297 42.9826 59.4216 44.6778 52.0806C45.3894 48.9478 46.4044 39.9992 46.7531 30.2238H23.9146Z" fill="#F5F5F5"/>
<path id="Vector_4" d="M33.554 59.835C37.6859 59.0699 41.2056 55.8562 42.1237 51.5714C42.2768 51.1123 42.2768 50.5002 42.4298 49.735M78.851 29.0759H54.0601C54.5192 39.329 55.4374 48.9699 56.2025 52.3365C58.0389 60.2941 65.8434 65.1911 73.801 63.3547C81.7586 61.5184 86.6556 53.7138 84.8192 45.7562C84.2071 43.1547 81.9116 36.5744 78.851 29.0759Z" fill="#131316"/>
<path id="Vector (Stroke)_5" fill-rule="evenodd" clip-rule="evenodd" d="M53.2326 28.2828C53.4492 28.0564 53.7489 27.9283 54.0622 27.9283H78.8531C79.3194 27.9283 79.7394 28.2105 79.9157 28.6423C82.9765 36.1414 85.3037 42.7956 85.9385 45.4935L85.9396 45.4983C87.919 54.0758 82.6341 62.4948 74.0611 64.4732C65.4837 66.4526 57.0646 61.1677 55.0863 52.5947L55.0854 52.591C54.2943 49.11 53.3742 39.3707 52.9156 29.1274C52.9016 28.8144 53.0161 28.5093 53.2326 28.2828ZM55.2646 30.2238C55.7395 40.0211 56.6131 48.9529 57.3233 52.0801C59.0183 59.4214 66.2079 63.9297 73.545 62.2365C80.8865 60.5423 85.3953 53.3535 83.7034 46.0167C83.1319 43.5896 80.9924 37.4159 78.0807 30.2238H55.2646ZM42.6569 48.6097C43.2785 48.734 43.6816 49.3387 43.5573 49.9602C43.4992 50.2508 43.4668 50.5131 43.4324 50.7915C43.4276 50.8308 43.4227 50.8704 43.4177 50.9104C43.3833 51.1859 43.3383 51.5346 43.2359 51.868C42.1976 56.5993 38.313 60.1215 33.7651 60.9637C33.1418 61.0791 32.543 60.6674 32.4276 60.0441C32.3121 59.4209 32.7238 58.822 33.3471 58.7066C37.045 58.0218 40.1871 55.1412 41.0035 51.331C41.0124 51.2896 41.0236 51.2487 41.037 51.2086C41.0723 51.1025 41.1002 50.944 41.14 50.6257C41.1444 50.5906 41.1489 50.554 41.1535 50.5159C41.1873 50.241 41.2303 49.8908 41.3064 49.51C41.4307 48.8885 42.0354 48.4854 42.6569 48.6097Z" fill="#F5F5F5"/>
</g>
<g id="Group_3">
<path id="Vector_5" d="M51.1533 8.87701V3.06186V8.87701ZM57.5806 11.9376L59.8761 7.65277L57.5806 11.9376ZM44.573 11.9376L42.4306 7.65277L44.573 11.9376Z" fill="#F5F5F5"/>
<path id="Vector (Stroke)_6" fill-rule="evenodd" clip-rule="evenodd" d="M51.1543 1.91425C51.7881 1.91425 52.302 2.4281 52.302 3.06197V8.87713C52.302 9.511 51.7881 10.0249 51.1543 10.0249C50.5204 10.0249 50.0065 9.511 50.0065 8.87713V3.06197C50.0065 2.4281 50.5204 1.91425 51.1543 1.91425ZM41.9183 6.62632C42.4852 6.34285 43.1746 6.57265 43.4581 7.1396L45.6005 11.4245C45.884 11.9914 45.6542 12.6808 45.0872 12.9643C44.5203 13.2478 43.8309 13.018 43.5474 12.451L41.405 8.16616C41.1215 7.59921 41.3513 6.9098 41.9183 6.62632ZM60.419 6.64118C60.9777 6.94051 61.188 7.63612 60.8887 8.19486L58.5932 12.4797C58.2939 13.0385 57.5983 13.2488 57.0396 12.9494C56.4808 12.6501 56.2705 11.9545 56.5698 11.3958L58.8653 7.1109C59.1646 6.55216 59.8602 6.34186 60.419 6.64118Z" fill="white"/>
</g>
</g>
</g>
</svg>
